<svg width="103" height="105" viewBox="0 0 103 105" fill="none" xmlns="http://www.w3.org/2000/svg">
<path d="M93.9459 104.474H0V9.61574C0 4.57362 4.06048 0.473719 9.05411 0.473719H103V95.3317C103 100.374 98.9395 104.474 93.9459 104.474Z" fill="url(#paint0_linear_504_78)"/>
<path d="M18.3857 48.0937H9.98729C8.62539 48.0937 7.69223 49.4943 8.19664 50.7676L13.6947 64.4424L11.4753 73.7881C11.2483 74.7049 11.9545 75.5962 12.8876 75.5962H19.2684C20.3529 75.5962 21.3112 74.8577 21.5887 73.7881L23.8585 65.2827L37.5784 49.6726C38.1332 49.0359 37.7045 48.0682 36.8722 48.0428L34.6276 48.0173C33.9214 48.0173 33.2657 48.2974 32.7865 48.8322L23.5558 59.4003L19.6971 48.985C19.5206 48.4502 18.991 48.0937 18.3857 48.0937Z" fill="#FEFCFD"/>
<path d="M38.9403 50.3346L33.4927 71.9801C33.0135 73.8391 34.4006 75.6216 36.2921 75.6216H40.2517C41.5632 75.6216 42.6981 74.7303 43.0512 73.4826L44.9175 66.6069L48.0701 63.8312L50.5921 73.7881C50.8695 74.8577 51.8279 75.6216 52.9376 75.6216H59.5453C61.2351 75.6216 62.4204 73.9409 61.8656 72.3366L56.5189 56.3954L64.312 49.8508C65.0181 49.2651 64.5894 48.1192 63.7067 48.1192H60.9829C60.3776 48.1192 59.7975 48.3484 59.3436 48.7303L46.4307 60.0878L48.7006 50.5129C49.0032 49.2906 48.0701 48.1192 46.8343 48.1192H41.765C40.4283 48.1192 39.2681 49.0359 38.9403 50.3346Z" fill="#FEFCFD"/>
<path d="M69.2047 50.2837L63.7571 71.9292C63.2779 73.7881 64.6651 75.5707 66.5566 75.5707H70.5162C71.8276 75.5707 72.9626 74.6794 73.3157 73.4316L75.182 66.556L78.3345 63.7803L80.8565 73.7372C81.134 74.8067 82.0923 75.5707 83.202 75.5707H89.8098C91.4995 75.5707 92.6849 73.89 92.13 72.2857L86.7833 56.3444L94.5764 49.7999C95.2826 49.2142 94.8538 48.0682 93.9711 48.0682H91.2473C90.642 48.0682 90.062 48.2974 89.608 48.6794L76.6952 60.0624L78.965 50.4874C79.2677 49.2651 78.3345 48.0937 77.0987 48.0937H72.0294C70.6927 48.0937 69.5326 48.985 69.2047 50.2837Z" fill="#FEFCFD"/>
<path d="M9.43244 79.416L8.07054 84.7637C7.94444 85.222 8.29752 85.6549 8.77671 85.6549H9.7603C10.0882 85.6549 10.3656 85.4257 10.4413 85.1202L10.8952 83.414L11.6771 82.7264L12.3076 85.1966C12.3832 85.4512 12.6102 85.6549 12.8876 85.6549H14.527C14.9557 85.6549 15.2331 85.2475 15.107 84.84L13.7956 80.8929L15.7123 79.2632C15.8889 79.1104 15.788 78.8303 15.561 78.8303H14.88C14.7287 78.8303 14.5774 78.8812 14.4765 78.983L11.2735 81.7842L11.8284 79.416C11.904 79.1104 11.6771 78.8303 11.3744 78.8303H10.1134C9.81074 78.8812 9.5081 79.1104 9.43244 79.416Z" fill="#FEFCFD"/>
<path d="M44.3627 79.416L43.0008 84.7637C42.8747 85.222 43.2277 85.6549 43.7069 85.6549H44.6905C45.0184 85.6549 45.2958 85.4257 45.3715 85.1202L45.8254 83.414L46.6073 82.7264L47.2378 85.1966C47.3134 85.4512 47.5404 85.6549 47.8178 85.6549H49.4572C49.8859 85.6549 50.1633 85.2475 50.0372 84.84L48.7258 80.8929L50.6425 79.2632C50.8191 79.1104 50.7182 78.8303 50.4912 78.8303H49.8103C49.6589 78.8303 49.5076 78.8812 49.4067 78.983L46.2037 81.7842L46.7586 79.416C46.8342 79.1104 46.6073 78.8303 46.3046 78.8303H45.0436C44.741 78.8812 44.4383 79.1104 44.3627 79.416Z" fill="#FEFCFD"/>
<path d="M25.2204 85.0947L24.1359 79.6706C24.035 79.2122 23.6315 78.8812 23.1775 78.8812L21.4626 78.9066C21.0338 78.9066 20.6303 79.1104 20.3529 79.4414L15.5862 85.1966C15.4349 85.4003 15.561 85.6804 15.8132 85.6804H16.7211C16.8724 85.6804 17.0238 85.604 17.1247 85.4767L18.1839 84.0252C18.2848 83.8978 18.4109 83.8214 18.5874 83.8214H21.5382C21.7904 83.8214 21.9922 83.9997 22.0174 84.2543L22.1435 85.222C22.1687 85.4767 22.3705 85.6549 22.6227 85.6549H24.7664C25.0438 85.6804 25.2708 85.4003 25.2204 85.0947ZM21.4121 82.65H19.5206C19.344 82.65 19.2684 82.4463 19.3693 82.319L20.9834 80.4346C21.0843 80.3072 21.3112 80.3582 21.3365 80.5364L21.6139 82.4208C21.6391 82.5482 21.5382 82.65 21.4121 82.65Z" fill="#FEFCFD"/>
<path d="M42.2946 85.0947L41.2353 79.6961C41.1344 79.2377 40.7309 78.9066 40.277 78.9066L38.562 78.9321C38.1332 78.9321 37.7297 79.1358 37.4523 79.4669L32.6856 85.222C32.5343 85.4257 32.6604 85.7059 32.9126 85.7059H33.8205C33.9719 85.7059 34.1232 85.6295 34.2241 85.5021L35.2833 84.0506C35.3842 83.9233 35.5103 83.8469 35.6868 83.8469H38.5872C38.8394 83.8469 39.0412 84.0252 39.0664 84.2798L39.1925 85.2475C39.2177 85.5021 39.4195 85.6804 39.6717 85.6804H41.8154C42.1433 85.6804 42.3702 85.4003 42.2946 85.0947ZM38.5872 82.65H36.6957C36.5191 82.65 36.4435 82.4463 36.5443 82.319L38.1584 80.4346C38.2593 80.3072 38.4863 80.3582 38.5115 80.5364L38.789 82.4208C38.789 82.5482 38.6881 82.65 38.5872 82.65Z" fill="#FEFCFD"/>
<path d="M82.0419 85.0947L80.9574 79.6706C80.8565 79.2122 80.453 78.8812 79.999 78.8812L78.2841 78.9066C77.8553 78.9066 77.4518 79.1104 77.1744 79.4414L72.4077 85.1966C72.2564 85.4003 72.3825 85.6804 72.6347 85.6804H73.5426C73.694 85.6804 73.8453 85.604 73.9462 85.4767L75.0054 84.0252C75.1063 83.8978 75.2324 83.8214 75.4089 83.8214H78.3597C78.6119 83.8214 78.8137 83.9997 78.8389 84.2543L78.965 85.222C78.9902 85.4767 79.192 85.6549 79.4442 85.6549H81.5879C81.8654 85.6804 82.0923 85.4003 82.0419 85.0947ZM78.3093 82.65H76.4178C76.2412 82.65 76.1655 82.4463 76.2664 82.319L77.8805 80.4346C77.9814 80.3072 78.2084 80.3582 78.2336 80.5364L78.511 82.4208C78.511 82.5482 78.4354 82.65 78.3093 82.65Z" fill="#FEFCFD"/>
<path d="M32.2064 84.9419L31.9795 85.2475C31.8029 85.5021 31.5003 85.6804 31.1724 85.6804H26.2292C25.5987 85.6804 25.3213 84.9164 25.75 84.4835L30.3653 80.129H27.4146C27.2632 80.129 27.1624 79.9762 27.238 79.8489L27.465 79.4414C27.6415 79.1104 27.9694 78.9066 28.3225 78.9066H33.19C33.7953 78.9066 34.098 79.6706 33.6692 80.1035L28.953 84.6873H32.0551C32.2064 84.6363 32.3073 84.8146 32.2064 84.9419Z" fill="#FEFCFD"/>
<path d="M59.8227 79.4923L58.4608 84.9419C58.36 85.3748 57.9564 85.6804 57.5025 85.6804H56.2667C55.9388 85.6804 55.7118 85.3748 55.7875 85.0692L56.3423 83.0065C56.3676 82.8792 56.2919 82.7519 56.1658 82.7519H54.249C54.1482 82.7519 54.0725 82.8028 54.0473 82.9047L53.5429 84.9419C53.442 85.3748 53.0385 85.6804 52.5845 85.6804H51.3487C51.0208 85.6804 50.7938 85.3748 50.8695 85.0692L52.3575 79.6197C52.4836 79.1868 52.8619 78.9066 53.2907 78.9066H54.4256C54.7534 78.9066 54.9804 79.2122 54.9048 79.5178L54.4508 81.3513C54.4256 81.4786 54.5012 81.606 54.6526 81.606H56.5945C56.6702 81.606 56.7711 81.555 56.7711 81.4532L57.2755 79.6197C57.4016 79.1868 57.7799 78.9066 58.2086 78.9066H59.3436C59.6714 78.8812 59.8984 79.1868 59.8227 79.4923Z" fill="#FEFCFD"/>
<path d="M75.3837 79.5687L75.2576 79.9253C75.182 80.129 75.0054 80.2563 74.8037 80.2563H73.1643C73.0382 80.2563 72.9121 80.3327 72.8869 80.46L71.4493 84.9674C71.3232 85.3748 70.9449 85.6549 70.5162 85.6549H68.8769C68.549 85.6549 68.322 85.3239 68.4229 85.0183L69.8352 80.6383C69.8857 80.4346 69.7596 80.2563 69.5578 80.2563H68.4986C68.1707 80.2563 67.9185 79.9253 68.0446 79.6197L68.1707 79.2632C68.2463 79.0594 68.4229 78.9321 68.6247 78.9321H74.9802C75.2576 78.9066 75.5098 79.2377 75.3837 79.5687Z" fill="#FEFCFD"/>
<path d="M92.7101 79.2632L91.096 84.9674C90.9699 85.4003 90.5916 85.6804 90.1629 85.6804H87.4138C87.2121 85.6804 87.0103 85.5531 86.9599 85.3493L85.3205 80.6128C85.2953 80.511 85.1692 80.5364 85.144 80.6128L83.8073 85.3748C83.7569 85.5531 83.6056 85.6549 83.429 85.6549H82.7228C82.5211 85.6549 82.395 85.4767 82.4454 85.273L84.11 79.5687C84.2361 79.1613 84.6144 78.8557 85.0431 78.8557H87.6913C87.893 78.8557 88.0948 78.983 88.1452 79.1868L89.7593 84.2034C89.7845 84.3053 89.9107 84.3053 89.9359 84.2034L91.4239 79.1358C91.4743 78.9576 91.6256 78.8557 91.8022 78.8557H92.4579C92.6345 78.8812 92.7606 79.0594 92.7101 79.2632Z" fill="#FEFCFD"/>
<path d="M66.607 84.178L67.0358 82.3954C67.1871 81.7842 66.7079 81.1731 66.0774 81.1731H63.3032C63.1014 81.1731 62.9501 80.9693 63.0257 80.7656L63.1014 80.5619C63.1771 80.3836 63.3536 80.2563 63.5554 80.2563H66.6827C67.1114 80.2563 67.515 79.9507 67.6158 79.5433V79.4923C67.6915 79.1868 67.4645 78.8557 67.1367 78.8557H62.4204C61.5125 78.8557 60.7307 79.4669 60.5289 80.3582L60.1002 82.1407C59.9488 82.7519 60.428 83.3631 61.0585 83.3631H63.9841C64.1859 83.3631 64.312 83.5413 64.2615 83.745L64.2111 83.9488C64.1606 84.1525 63.9589 84.3053 63.7319 84.3053H60.2767C59.848 84.3053 59.4697 84.5854 59.3436 85.0183V85.0438C59.2427 85.3494 59.4949 85.6804 59.8227 85.6804H64.7155C65.5982 85.6804 66.38 85.0438 66.607 84.178Z" fill="#FEFCFD"/>
<defs>
<linearGradient id="paint0_linear_504_78" x1="32.024" y1="71.7432" x2="103.734" y2="2.16443" gradientUnits="userSpaceOnUse">
<stop stop-color="#05236B"/>
<stop offset="1" stop-color="#005FAF"/>
</linearGradient>
</defs>
</svg>
