<svg width="103" height="104" viewBox="0 0 103 104" fill="none" xmlns="http://www.w3.org/2000/svg">
<path d="M51.5 103.974C79.9466 103.974 103 80.9203 103 52.4737C103 24.0271 79.9466 0.973719 51.5 0.973719C23.0534 0.973719 0 24.0271 0 52.4737C0 80.9203 23.0534 103.974 51.5 103.974Z" fill="#0B347B"/>
<path d="M45.631 65.4705L40.2906 71.5722L39.4869 74.8293C39.3812 75.2417 39.1062 75.4744 38.6515 75.4744H36.0078C35.5531 75.4744 35.3839 75.2417 35.479 74.8081L36.3356 71.3607L34.0726 65.6397C33.8928 65.1849 34.0091 64.9523 34.4533 64.9523H38.1968C38.3007 64.9489 38.403 64.9789 38.4887 65.0379C38.5743 65.0969 38.6388 65.1818 38.6727 65.2801L40.2272 69.3303L43.6218 65.4705C43.9178 65.1215 44.2245 64.9523 44.5523 64.9523H45.4406C45.8848 64.9523 45.9377 65.1215 45.631 65.4705Z" fill="white"/>
<path d="M44.0554 74.8292L46.3607 65.5972C46.4771 65.1637 46.752 64.931 47.2173 64.931H49.8822C50.3369 64.931 50.485 65.1637 50.3686 65.5972L49.3429 69.6686L54.0381 65.4069C54.3624 65.113 54.7849 64.9508 55.2225 64.9522H56.3858C56.8405 64.9522 56.8828 65.1002 56.5021 65.4069L53.3402 68.0506L55.6455 74.8292C55.7936 75.2416 55.6455 75.4742 55.2014 75.4742H51.8597C51.4367 75.4742 51.1512 75.2627 51.0137 74.8292L49.9774 71.001L48.7401 72.0691L48.0739 74.808C47.9787 75.2204 47.7037 75.4531 47.2702 75.4531H44.5736C44.1294 75.4742 43.9602 75.2627 44.0554 74.8292Z" fill="white"/>
<path d="M56.3117 74.8292L58.6065 65.5972C58.7228 65.1637 59.0083 64.931 59.4631 64.931H62.1279C62.5827 64.931 62.7413 65.1637 62.625 65.5972L61.5992 69.6686L66.2945 65.4069C66.6165 65.1093 67.0404 64.9466 67.4789 64.9522H68.6315C69.0863 64.9522 69.1286 65.1002 68.7479 65.4069L65.586 68.0506L67.8913 74.8292C68.0393 75.2416 67.8913 75.4742 67.4577 75.4742H64.1055C63.693 75.4742 63.4075 75.2627 63.27 74.8292L62.2231 71.001L60.9859 72.0691L60.3196 74.808C60.2245 75.2204 59.9601 75.4531 59.5265 75.4531H56.8193C56.3857 75.4742 56.2165 75.2627 56.3117 74.8292Z" fill="white"/>
<path d="M34.3687 79.2813L34.9821 76.8279C34.9942 76.7757 35.024 76.7293 35.0664 76.6966C35.1088 76.6638 35.1612 76.6467 35.2147 76.6481H35.9127C36.029 76.6481 36.0819 76.7116 36.0501 76.8279L35.7858 77.9065L37.0336 76.7856C37.1253 76.7086 37.2417 76.6673 37.3614 76.6693H37.6681C37.7738 76.6693 37.795 76.7116 37.6998 76.7856L36.8644 77.4835L37.4777 79.2918C37.5095 79.4082 37.4777 79.4716 37.3614 79.4716H36.4626C36.4098 79.4748 36.3577 79.4582 36.3166 79.4249C36.2755 79.3916 36.2483 79.3441 36.2405 79.2918L35.955 78.2872L35.6271 78.5727L35.4579 79.2918C35.4526 79.3433 35.4276 79.3906 35.3882 79.4241C35.3488 79.4576 35.298 79.4746 35.2464 79.4716H34.5273C34.3863 79.4505 34.3335 79.387 34.3687 79.2813Z" fill="white"/>
<path d="M37.721 79.2918L39.5505 76.7856C39.5827 76.7398 39.6255 76.7025 39.6751 76.6767C39.7248 76.6509 39.78 76.6375 39.836 76.6375H40.5339C40.559 76.6346 40.5843 76.6367 40.6085 76.6436C40.6328 76.6505 40.6554 76.6622 40.675 76.6779C40.6947 76.6937 40.7111 76.7132 40.7231 76.7353C40.7352 76.7574 40.7428 76.7817 40.7454 76.8067L41.1473 79.2601C41.1684 79.3764 41.1261 79.4293 40.9887 79.4293H40.2167C40.1917 79.4323 40.1663 79.4302 40.1421 79.4233C40.1179 79.4163 40.0953 79.4046 40.0756 79.3889C40.0559 79.3732 40.0396 79.3537 40.0275 79.3316C40.0154 79.3095 40.0078 79.2852 40.0052 79.2601L39.91 78.6891H38.6727L38.218 79.2918C38.1893 79.3353 38.1499 79.3708 38.1036 79.3948C38.0574 79.4189 38.0058 79.4308 37.9536 79.4293H37.7739C37.6681 79.4505 37.647 79.387 37.721 79.2918ZM39.836 78.2343L39.6774 77.2826L39.0111 78.2343H39.836Z" fill="white"/>
<path d="M42.0251 76.9336L42.0568 76.8278C42.068 76.7791 42.0947 76.7353 42.1328 76.7029C42.1709 76.6705 42.2184 76.6513 42.2683 76.648H44.6688C44.7745 76.648 44.7745 76.7115 44.7005 76.8066L42.8182 78.9745H43.9074C44.0131 78.9745 44.0554 79.0274 44.0343 79.1437L44.0131 79.26C44.0119 79.2846 44.0056 79.3087 43.9946 79.3308C43.9836 79.3528 43.9682 79.3724 43.9494 79.3883C43.9306 79.4041 43.9087 79.4159 43.8851 79.423C43.8615 79.43 43.8367 79.4322 43.8122 79.4292H41.3906C41.2742 79.4292 41.2742 79.3764 41.3588 79.2812L43.2412 77.1133H42.1731C42.0356 77.1133 42.0039 77.0499 42.0251 76.9336Z" fill="white"/>
<path d="M44.2986 79.2918L46.1281 76.7856C46.1603 76.7398 46.2031 76.7024 46.2528 76.6767C46.3025 76.6509 46.3576 76.6375 46.4136 76.6375H47.1221C47.1466 76.6346 47.1714 76.6367 47.195 76.6438C47.2186 76.6508 47.2405 76.6626 47.2593 76.6785C47.2782 76.6944 47.2935 76.7139 47.3045 76.736C47.3155 76.758 47.3218 76.7821 47.3231 76.8067L47.7249 79.2601C47.7461 79.3764 47.7038 79.4293 47.5769 79.4293H46.7943C46.7693 79.4322 46.7439 79.4302 46.7197 79.4232C46.6955 79.4163 46.6729 79.4046 46.6532 79.3889C46.6335 79.3731 46.6172 79.3537 46.6051 79.3315C46.593 79.3094 46.5854 79.2852 46.5828 79.2601L46.4876 78.689H45.2504L44.7957 79.2918C44.7685 79.3369 44.7295 79.3735 44.6828 79.3978C44.6362 79.422 44.5837 79.4329 44.5313 79.4293H44.3621C44.2458 79.4504 44.2246 79.387 44.2986 79.2918ZM46.4136 78.2343L46.2656 77.2826L45.5993 78.2343H46.4136Z" fill="white"/>
<path d="M47.9893 79.2813L48.6026 76.8279C48.6148 76.7757 48.6446 76.7293 48.687 76.6966C48.7294 76.6638 48.7817 76.6467 48.8353 76.6481H49.5332C49.6496 76.6481 49.7024 76.7116 49.6707 76.8279L49.4063 77.9065L50.6542 76.7856C50.7459 76.7086 50.8623 76.6673 50.982 76.6693H51.2887C51.3944 76.6693 51.4156 76.7116 51.3204 76.7856L50.485 77.4941L51.0983 79.2918C51.1301 79.4082 51.0983 79.4716 50.982 79.4716H50.0831C50.0309 79.4726 49.98 79.4551 49.9393 79.4222C49.8987 79.3893 49.871 79.3431 49.8611 79.2918L49.5755 78.2872L49.2477 78.5727L49.0785 79.2918C49.0732 79.3433 49.0482 79.3906 49.0088 79.4241C48.9694 79.4576 48.9186 79.4746 48.867 79.4716H48.1479C48.014 79.4505 47.9611 79.387 47.9893 79.2813Z" fill="white"/>
<path d="M51.3416 79.2812L51.9549 76.8278C51.9677 76.7698 52.0022 76.7188 52.0513 76.6854C52.1005 76.6519 52.1606 76.6386 52.2193 76.6481H52.9066C53.0124 76.6481 53.0547 76.7115 53.0336 76.8278L52.8115 77.7796H53.6046L53.8372 76.8278C53.8451 76.7755 53.8722 76.7281 53.9133 76.6948C53.9544 76.6615 54.0065 76.6448 54.0593 76.6481H54.789C54.8947 76.6481 54.937 76.7115 54.8947 76.8278L54.292 79.2812C54.2497 79.387 54.1968 79.4504 54.0805 79.4504H53.3614C53.245 79.4504 53.1922 79.387 53.2239 79.2812L53.4883 78.2343H52.6952L52.4308 79.2812C52.3885 79.387 52.3356 79.4504 52.2193 79.4504H51.4896C51.3627 79.4504 51.3204 79.387 51.3416 79.2812Z" fill="white"/>
<path d="M54.7467 78.9745H56.058C56.1743 78.9745 56.2272 78.9322 56.2483 78.8581L56.3118 78.6678V78.6149C56.3118 78.5515 56.2483 78.5303 56.1531 78.5303H55.2437C54.937 78.5303 54.789 78.4246 54.789 78.2131C54.7904 78.1311 54.8011 78.0495 54.8207 77.9698L54.9899 77.3036C55.0287 77.1276 55.1167 76.9663 55.2437 76.8383C55.3058 76.7758 55.3801 76.7266 55.4619 76.6939C55.5438 76.6611 55.6315 76.6455 55.7196 76.648H57.6548C57.7711 76.648 57.824 76.7114 57.7923 76.8277L57.75 76.9335C57.7446 76.9849 57.7196 77.0323 57.6802 77.0658C57.6409 77.0993 57.5901 77.1163 57.5385 77.1133H56.2483C56.132 77.1133 56.058 77.145 56.0368 77.219L55.9839 77.3988V77.4305C55.9839 77.494 56.0368 77.5045 56.1531 77.5045H56.9568C57.3375 77.5045 57.5279 77.642 57.5279 77.8852C57.53 77.9389 57.5229 77.9926 57.5067 78.0439L57.3164 78.7841C57.2001 79.2177 56.9357 79.4503 56.5127 79.4503H54.6303C54.514 79.4503 54.4612 79.3869 54.5035 79.2811V79.1648C54.5157 79.1098 54.5466 79.0608 54.591 79.0261C54.6353 78.9914 54.6904 78.9731 54.7467 78.9745Z" fill="white"/>
<path d="M57.8663 76.9336L57.9086 76.8278C57.916 76.7791 57.9401 76.7346 57.9767 76.7018C58.0134 76.6689 58.0604 76.6499 58.1096 76.648H60.5841C60.7004 76.648 60.7533 76.7115 60.7216 76.8278L60.6793 76.9336C60.6739 76.985 60.6489 77.0324 60.6096 77.0658C60.5702 77.0993 60.5194 77.1163 60.4678 77.1133H59.7698L59.2411 79.26C59.1988 79.3764 59.1459 79.4292 59.0296 79.4292H58.2999C58.1942 79.4292 58.1307 79.3764 58.173 79.26L58.7018 77.1133H58.0038C57.8875 77.1133 57.8452 77.0499 57.8663 76.9336Z" fill="white"/>
<path d="M60.2667 79.2918L62.0856 76.7856C62.1195 76.7416 62.1627 76.7055 62.212 76.6799C62.2613 76.6543 62.3156 76.6399 62.3711 76.6375H63.0797C63.1047 76.6346 63.13 76.6367 63.1543 76.6436C63.1785 76.6505 63.2011 76.6622 63.2208 76.6779C63.2404 76.6937 63.2568 76.7132 63.2689 76.7353C63.281 76.7574 63.2885 76.7817 63.2912 76.8067L63.6824 79.2601C63.7036 79.3764 63.6719 79.4293 63.5344 79.4293H62.7518C62.7274 79.4322 62.7026 79.4301 62.679 79.4231C62.6554 79.416 62.6335 79.4042 62.6147 79.3883C62.5958 79.3725 62.5804 79.3529 62.5695 79.3308C62.5585 79.3088 62.5522 79.2847 62.5509 79.2601L62.4557 78.6891H61.2185L60.7743 79.2918C60.7472 79.3369 60.7081 79.3735 60.6615 79.3978C60.6149 79.4221 60.5624 79.433 60.51 79.4293H60.3408C60.2033 79.4505 60.1821 79.387 60.2667 79.2918ZM62.3923 78.2343L62.2442 77.2826L61.578 78.2343H62.3923Z" fill="white"/>
<path d="M63.9575 79.2812L64.5603 76.8278C64.5705 76.7746 64.5997 76.727 64.6426 76.6939C64.6854 76.6608 64.7389 76.6445 64.7929 76.648H65.8398C65.8915 76.645 65.9422 76.6621 65.9816 76.6955C66.021 76.729 66.046 76.7764 66.0513 76.8278L66.5589 78.9322H66.5801L67.1088 76.8278C67.119 76.7746 67.1483 76.727 67.1911 76.6939C67.234 76.6608 67.2875 76.6445 67.3415 76.648H67.4578C67.5636 76.648 67.627 76.7115 67.5847 76.8278L66.9608 79.2812C66.9185 79.387 66.8656 79.4504 66.7493 79.4504H65.7235C65.6714 79.4524 65.6201 79.4368 65.5779 79.4061C65.5357 79.3754 65.5051 79.3314 65.4909 79.2812L64.9621 77.1451L64.4334 79.2812C64.3911 79.387 64.3382 79.4504 64.2219 79.4504H64.1056C63.9681 79.4504 63.9152 79.387 63.9575 79.2812Z" fill="white"/>
<path d="M35.278 50.4543L38.662 47.6202L41.7182 45.1456C46.2865 41.4444 48.5496 38.0393 48.5496 34.8774C48.5496 32.1385 47.4075 29.8754 45.0916 28.12C42.7757 26.3645 39.857 25.4762 36.2826 25.4762C27.8333 25.4762 23.635 28.9025 23.635 35.7128V35.8714H28.5946V35.808C28.5946 30.9435 30.5369 28.5077 34.4214 28.5007C37.6151 28.5007 39.2119 30.517 39.2119 34.5495C39.2119 37.574 36.2262 41.945 30.2549 47.6625C27.59 50.2357 25.2283 52.6503 23.1697 54.9063V59.6651H48.2852V51.5752H33.6918C34.5272 51.0042 35.0665 50.6446 35.278 50.4543Z" fill="white"/>
<path d="M65.7339 25.4758C75.1244 25.4758 79.8233 31.2673 79.8303 42.8504C79.8374 54.4335 75.1385 60.2215 65.7339 60.2145C56.3151 60.2145 51.6093 54.4265 51.6163 42.8504C51.6234 31.2744 56.3292 25.4828 65.7339 25.4758ZM65.7339 28.183C63.1642 28.183 61.8846 33.0686 61.8846 42.8716C61.8846 52.6746 63.1642 57.5496 65.7339 57.5496C68.3036 57.5496 69.5515 52.664 69.5515 42.8716C69.5515 33.0792 68.2825 28.183 65.7339 28.183Z" fill="white"/>
<path d="M85.5408 81.3751C85.8507 81.3772 86.1544 81.2872 86.4131 81.1165C86.6719 80.9458 86.8741 80.7021 86.9942 80.4163C87.1143 80.1305 87.1468 79.8155 87.0876 79.5112C87.0284 79.2069 86.8802 78.927 86.6618 78.7071C86.4433 78.4872 86.1645 78.3371 85.8606 78.2758C85.5567 78.2145 85.2415 78.2449 84.9549 78.3631C84.6683 78.4812 84.4232 78.6818 84.2508 78.9394C84.0783 79.197 83.9862 79.5 83.9862 79.81C83.9862 80.2233 84.1497 80.6198 84.4409 80.913C84.7321 81.2062 85.1275 81.3723 85.5408 81.3751V81.3751Z" fill="white"/>
<path d="M17.6708 81.375C17.9803 81.375 18.2829 81.2832 18.5403 81.1112C18.7977 80.9393 18.9983 80.6948 19.1167 80.4089C19.2352 80.1229 19.2662 79.8082 19.2058 79.5046C19.1454 79.201 18.9963 78.9221 18.7775 78.7032C18.5586 78.4843 18.2797 78.3353 17.9761 78.2749C17.6725 78.2145 17.3578 78.2455 17.0718 78.364C16.7858 78.4824 16.5414 78.683 16.3694 78.9404C16.1975 79.1978 16.1057 79.5004 16.1057 79.8099C16.1043 80.0158 16.1438 80.22 16.2219 80.4105C16.3001 80.601 16.4153 80.7741 16.5609 80.9197C16.7066 81.0654 16.8797 81.1806 17.0702 81.2587C17.2607 81.3369 17.4648 81.3764 17.6708 81.375V81.375Z" fill="white"/>
<path d="M9.55962 71.7835L13.4406 72.5872L15.0269 72.1431C15.2278 72.0796 15.3864 72.1537 15.5027 72.344L16.1372 73.465C16.2536 73.6659 16.2007 73.7928 15.9786 73.8562L14.3078 74.3215L12.4254 76.6692C12.2774 76.8595 12.1505 76.8595 12.0447 76.6797L11.1353 75.0829C11.1082 75.0392 11.0956 74.988 11.0994 74.9367C11.1032 74.8854 11.1232 74.8366 11.1564 74.7974L12.4995 73.1583L10.0355 72.6507C9.94619 72.639 9.86039 72.6084 9.78381 72.561C9.70723 72.5136 9.64162 72.4505 9.59134 72.3757L9.37984 71.995C9.2741 71.8153 9.32697 71.7412 9.55962 71.7835Z" fill="white"/>
<path d="M13.6205 69.3831L9.00977 69.9541C8.91468 69.9744 8.81543 69.9586 8.73136 69.9097C8.6473 69.8608 8.58444 69.7824 8.55505 69.6897L7.19088 66.1365C7.11686 65.9356 7.19088 65.8193 7.40238 65.7981L7.62446 65.7664C7.71817 65.7465 7.81595 65.7627 7.89827 65.8117C7.9806 65.8607 8.04142 65.9389 8.0686 66.0308L8.85115 68.0612L10.0778 67.9026L9.36932 66.0625C9.2953 65.8722 9.36932 65.7558 9.5914 65.7241L9.80289 65.703C9.89661 65.6831 9.99439 65.6992 10.0767 65.7482C10.159 65.7972 10.2199 65.8755 10.247 65.9673L10.9556 67.7968L12.3726 67.6276L11.5901 65.5972C11.516 65.3963 11.5795 65.28 11.8016 65.2588L12.0131 65.2271C12.1055 65.2041 12.2033 65.2176 12.286 65.2649C12.3688 65.3122 12.4301 65.3896 12.4572 65.4809L13.832 69.0447C13.906 69.2456 13.8425 69.3619 13.6205 69.3831Z" fill="white"/>
<path d="M11.1142 63.9898L10.5643 61.621C10.5114 61.4201 10.4163 61.3249 10.2576 61.3143H9.80292C9.71832 61.3355 9.69717 61.4412 9.73947 61.6316L10.1202 63.2707C10.2471 63.8065 10.1096 64.1237 9.70774 64.2224C9.55483 64.2547 9.39866 64.2689 9.24244 64.2648L7.97345 64.2436C7.65236 64.247 7.33693 64.159 7.06401 63.9898C6.78566 63.8107 6.58833 63.5298 6.51411 63.2073L5.71041 59.7069C5.65754 59.4955 5.74214 59.3897 5.96421 59.4003H6.18628C6.40836 59.4108 6.53526 59.506 6.58813 59.7069L7.12746 62.044C7.18033 62.2661 7.2755 62.3718 7.42355 62.3824H7.8254C7.91 62.3613 7.93115 62.2555 7.88885 62.0546L7.56103 60.627C7.40593 59.9502 7.55398 59.5589 8.00518 59.4531C8.09871 59.431 8.19459 59.4204 8.2907 59.4214L9.68659 59.4531C10.522 59.4637 11.0296 59.8444 11.1988 60.6058L11.9919 63.9792C12.0342 64.1907 11.9496 64.2965 11.7276 64.2965H11.5161C11.4232 64.3034 11.3309 64.276 11.2569 64.2195C11.1828 64.1629 11.1321 64.0812 11.1142 63.9898V63.9898Z" fill="white"/>
<path d="M10.4374 58.4274L5.85844 57.6449C5.762 57.6325 5.67304 57.5865 5.60725 57.5149C5.54146 57.4433 5.50309 57.3508 5.49889 57.2536L5.40372 55.9529C5.39314 55.7308 5.48831 55.6462 5.71039 55.6885L7.7302 56.0375L5.47774 53.8908C5.32012 53.7454 5.22529 53.5444 5.21337 53.3303L5.17107 52.7593C5.14992 52.5478 5.22394 52.516 5.39314 52.6958L6.79961 54.134L10.0144 52.7593C10.2259 52.6747 10.3316 52.7381 10.3422 52.9602L10.4691 54.5993C10.4903 54.8002 10.3951 54.9377 10.1836 55.0223L8.3647 55.678L8.93575 56.2384L10.2999 56.4711C10.3925 56.479 10.4787 56.5215 10.5414 56.5901C10.604 56.6587 10.6387 56.7483 10.6383 56.8412L10.7335 58.1631C10.7546 58.3746 10.6489 58.4592 10.4374 58.4274Z" fill="white"/>
<path d="M10.0673 51.5959L5.65758 50.1472C5.56326 50.1245 5.48073 50.0675 5.42602 49.9874C5.3713 49.9073 5.3483 49.8097 5.36149 49.7136L5.63643 45.9172C5.65758 45.7057 5.76333 45.6317 5.97483 45.6951L6.17576 45.7691C6.27049 45.7872 6.35444 45.8415 6.40975 45.9205C6.46505 45.9995 6.48733 46.0969 6.47186 46.1921L6.31323 48.36L7.49763 48.7407L7.6351 46.7738C7.65625 46.5728 7.77257 46.4988 7.9735 46.5728L8.185 46.6363C8.27778 46.6567 8.35917 46.712 8.41232 46.7907C8.46547 46.8694 8.48631 46.9656 8.47052 47.0593L8.33305 49.0262L9.68664 49.4704L9.84526 47.3025C9.86641 47.091 9.97216 47.017 10.1837 47.0804L10.3846 47.1439C10.5961 47.2179 10.7018 47.3554 10.6807 47.5669L10.4057 51.3739C10.3952 51.5959 10.2788 51.67 10.0673 51.5959Z" fill="white"/>
<path d="M10.5219 46.1075L6.36598 44.0454C6.27494 44.0098 6.2011 43.9405 6.15975 43.8519C6.11841 43.7633 6.11274 43.6622 6.1439 43.5695L6.9476 39.9C7.09565 39.2232 7.40232 38.9271 7.85704 39.0329C8.00173 39.0647 8.14077 39.1182 8.26947 39.1915L9.18949 39.6462C9.66536 39.8789 9.85571 40.2596 9.73938 40.7672L11.7063 40.746C11.9284 40.746 12.013 40.8412 11.9707 41.0527L11.6429 42.5226C11.6376 42.5686 11.6233 42.613 11.6008 42.6534C11.5782 42.6938 11.5478 42.7293 11.5114 42.7578C11.475 42.7864 11.4333 42.8074 11.3887 42.8196C11.3441 42.8319 11.2975 42.8352 11.2516 42.8293L9.30581 42.7341L9.17891 43.3157L10.9449 44.1935C11.1459 44.2992 11.2199 44.4473 11.1776 44.6482L10.8921 45.9383C10.8498 46.1498 10.7229 46.2027 10.5219 46.1075ZM7.84647 41.1056L7.71957 41.0527C7.6244 41.0315 7.56095 41.095 7.51865 41.2536L7.27542 42.3746L8.39637 42.9245L8.63959 41.8035C8.66343 41.7208 8.65483 41.632 8.61553 41.5554C8.57624 41.4788 8.5092 41.42 8.42809 41.3911L7.84647 41.1056Z" fill="white"/>
<path d="M8.31192 37.5208L8.14272 37.3939C8.05978 37.3451 7.99775 37.2674 7.96848 37.1757C7.93922 37.084 7.94478 36.9847 7.9841 36.8969L9.62322 32.6352C9.70782 32.4342 9.83471 32.3919 10.0145 32.5294L10.1837 32.6563C10.2658 32.7032 10.3276 32.779 10.3569 32.8689C10.3862 32.9588 10.381 33.0565 10.3423 33.1428L9.87701 34.3589L13.2293 36.7065C13.409 36.844 13.4619 37.0026 13.3879 37.193L12.912 38.4302C12.8274 38.6417 12.7005 38.684 12.5208 38.5466L9.16849 36.1884L8.7032 37.415C8.6186 37.616 8.4917 37.6477 8.31192 37.5208Z" fill="white"/>
<path d="M14.2127 34.3483L10.8604 31.1229C10.7872 31.0577 10.7402 30.968 10.7286 30.8706C10.7169 30.7732 10.7412 30.6749 10.797 30.5942L11.4421 29.4626C11.5478 29.2723 11.6853 29.2617 11.8439 29.4203L13.3138 30.8374L12.6582 27.8024C12.6141 27.5932 12.648 27.3751 12.7534 27.189L13.0389 26.692C13.1446 26.5017 13.2187 26.5228 13.261 26.7555L13.6099 28.7435L17.0468 29.4203C17.2689 29.4626 17.3217 29.5684 17.216 29.7587L16.3911 31.1864C16.296 31.3661 16.1373 31.4296 15.9153 31.3873L14.0435 30.9008L14.1916 31.6834L15.1962 32.6457C15.271 32.7025 15.3206 32.7863 15.3344 32.8791C15.3483 32.972 15.3252 33.0666 15.2702 33.1427L14.6145 34.2848C14.5088 34.4752 14.3713 34.4857 14.2127 34.3483Z" fill="white"/>
<path d="M17.7976 28.4792L14.8684 24.8837C14.7309 24.7039 14.7203 24.5242 14.8578 24.355L15.6404 23.2975C15.7673 23.1283 15.9047 23.1388 16.0528 23.308L18.9715 26.9035C19.1089 27.0833 19.1195 27.2525 18.9926 27.4111L18.1995 28.4792C18.0726 28.6484 17.9457 28.6484 17.7976 28.4792Z" fill="white"/>
<path d="M19.5424 25.3278L21.2027 23.5512C21.3401 23.4031 21.3719 23.2656 21.2873 23.1282L21.0863 22.8321C21.0731 22.8045 21.0552 22.7795 21.0335 22.758C20.97 22.6946 20.8643 22.7369 20.7374 22.8744L19.5847 24.1011C19.204 24.517 18.8656 24.5805 18.5695 24.2914C18.4551 24.1854 18.3555 24.0645 18.2734 23.9319L17.5755 22.8638C17.3943 22.5986 17.295 22.286 17.2899 21.9649C17.2838 21.8017 17.3106 21.639 17.3687 21.4863C17.4269 21.3337 17.5152 21.1944 17.6283 21.0766L20.0817 18.454C20.2298 18.2954 20.3672 18.306 20.4836 18.4963L20.5999 18.6867C20.6568 18.7616 20.6839 18.8549 20.6761 18.9486C20.6683 19.0423 20.6261 19.1298 20.5576 19.1943L18.9291 20.9391C18.7704 21.1083 18.7387 21.2458 18.8127 21.3727L18.9925 21.6582C19.0004 21.68 19.0153 21.6986 19.0348 21.7111C19.0983 21.7746 19.204 21.7323 19.3415 21.5842L20.3355 20.5162C20.8114 19.998 21.2238 19.9028 21.5622 20.2306C21.6358 20.2953 21.6999 20.37 21.7526 20.4527L22.5034 21.6265C22.9581 22.3245 22.9264 22.959 22.3976 23.5194L20.0288 26.0574C19.8808 26.216 19.7433 26.2055 19.627 26.0151L19.5001 25.8459C19.4446 25.7685 19.4184 25.674 19.4262 25.5791C19.4339 25.4842 19.4751 25.3951 19.5424 25.3278V25.3278Z" fill="white"/>
<path d="M23.783 21.6689L21.869 17.4389C21.7844 17.238 21.8372 17.0582 22.0487 16.889L23.0322 16.1171C23.1908 15.9902 23.3177 16.0219 23.4129 16.2228L24.1532 17.8514L25.2952 16.9419L24.555 15.3134C24.5123 15.2267 24.5005 15.128 24.5217 15.0337C24.5429 14.9395 24.5957 14.8553 24.6713 14.7952L25.7288 13.9809C25.8874 13.8646 26.0038 13.8963 26.0989 14.0972L28.013 18.3272C28.0597 18.4086 28.0747 18.5042 28.0552 18.596C28.0357 18.6877 27.983 18.769 27.9073 18.8242L26.8709 19.6385C26.7017 19.776 26.5642 19.7443 26.4691 19.5433L25.6548 17.7456L24.5127 18.655L25.327 20.4528C25.3714 20.5347 25.3851 20.6297 25.3658 20.7208C25.3464 20.8119 25.2951 20.8931 25.2212 20.9498L24.1743 21.7747C24.0051 21.9121 23.8782 21.8804 23.783 21.6689Z" fill="white"/>
<path d="M31.7247 16.0536L30.8681 11.4746C30.8438 11.3807 30.8552 11.2811 30.9001 11.1951C30.9451 11.1092 31.0204 11.0429 31.1114 11.0093L32.2958 10.47C32.4967 10.3748 32.613 10.4383 32.6553 10.6604L33.0254 12.6696L34.2521 9.81437C34.3343 9.61974 34.4847 9.4618 34.6751 9.37023L35.2039 9.127C35.3942 9.0424 35.4471 9.10585 35.3413 9.31735L34.4848 11.1362L36.8959 13.6742C37.0439 13.8329 37.0228 13.9598 36.8218 14.0549L35.3308 14.7423C35.2473 14.7835 35.1521 14.7944 35.0614 14.7732C34.9708 14.752 34.8903 14.6999 34.8337 14.626L33.5859 13.1455L33.2475 13.8752L33.5119 15.2287C33.537 15.3186 33.5283 15.4145 33.4873 15.4983C33.4464 15.5822 33.3761 15.648 33.2898 15.6835L32.0843 16.2334C31.8939 16.318 31.767 16.2651 31.7247 16.0536Z" fill="white"/>
<path d="M43.3573 7.09659L41.6124 10.6604L41.6442 12.2995C41.6538 12.3941 41.6277 12.4889 41.5709 12.5652C41.5142 12.6416 41.4309 12.6939 41.3375 12.7119L40.0791 13.0503C39.8676 13.1032 39.7513 13.0186 39.7513 12.7965L39.709 11.0622L37.9112 8.65111C37.7632 8.46076 37.7949 8.33386 37.9958 8.28099L39.7724 7.79454C39.8207 7.77749 39.8734 7.77766 39.9216 7.795C39.9697 7.81234 40.0104 7.8458 40.0368 7.88972L41.2952 9.60286L42.395 7.33982C42.4292 7.25625 42.4809 7.18094 42.5465 7.11894C42.6122 7.05693 42.6903 7.00966 42.7757 6.98027L43.1987 6.87452C43.4031 6.81107 43.456 6.8851 43.3573 7.09659Z" fill="white"/>
<path d="M45.3348 7.22354L45.3665 7.00147C45.3762 6.90762 45.4186 6.82017 45.4863 6.75444C45.5539 6.6887 45.6426 6.64887 45.7367 6.64192L50.1464 6.16604C50.3368 6.1449 50.3791 6.22949 50.2522 6.44099L47.2172 10.7979L49.2053 10.5864C49.4273 10.5652 49.5119 10.6604 49.4802 10.8825L49.4591 11.094C49.4563 11.1903 49.4161 11.2817 49.347 11.3489C49.2779 11.416 49.1853 11.4536 49.0889 11.4535L44.658 11.94C44.4677 11.9611 44.436 11.8659 44.5628 11.6544L47.5767 7.29756L45.6203 7.50906C45.3983 7.54079 45.3031 7.43504 45.3348 7.22354Z" fill="white"/>
<path d="M50.6328 10.9882L52.0181 6.5573C52.0409 6.46088 52.0994 6.3767 52.1819 6.32175C52.2643 6.26679 52.3645 6.24515 52.4623 6.2612L54.3129 6.36695C54.3559 6.36536 54.3987 6.37284 54.4386 6.3889C54.4786 6.40495 54.5147 6.42923 54.5446 6.46015C54.5745 6.49107 54.5976 6.52793 54.6123 6.56836C54.6271 6.60878 54.6331 6.65185 54.6301 6.69477L54.7042 9.31736H54.7253L56.4702 6.80052C56.5244 6.71289 56.601 6.64125 56.6921 6.59294C56.7831 6.54463 56.8854 6.52138 56.9883 6.52557L58.8072 6.63132C59.0187 6.6419 59.0928 6.75822 59.0293 6.96972L57.6334 11.4006C57.6109 11.4929 57.5555 11.5739 57.4777 11.6284C57.3999 11.6828 57.3049 11.7071 57.2104 11.6967L55.9097 11.6227C55.6771 11.6121 55.603 11.4958 55.677 11.2843L56.8297 7.61479H56.8086L54.3446 11.2209C54.2895 11.3101 54.2112 11.3828 54.1181 11.4312C54.025 11.4796 53.9206 11.5019 53.8159 11.4958L53.1073 11.4535C52.8853 11.4429 52.7689 11.3266 52.7689 11.1151L52.6526 7.36099H52.6315L51.4788 11.0305C51.4632 11.1244 51.4111 11.2083 51.3338 11.2638C51.2565 11.3193 51.1603 11.3419 51.0664 11.3266H50.8654C50.6434 11.3055 50.5693 11.1997 50.6328 10.9882Z" fill="white"/>
<path d="M58.7331 11.6862L60.8375 7.54077C60.871 7.45052 60.9383 7.37685 61.0252 7.33539C61.112 7.29393 61.2116 7.28794 61.3028 7.3187L65.0147 8.16469C65.2262 8.20699 65.279 8.33389 65.1839 8.52424L65.0781 8.72516C65.0425 8.8138 64.975 8.88582 64.8888 8.92696C64.8026 8.96809 64.7041 8.97533 64.6128 8.94724L62.4978 8.46079L61.9373 9.57116L63.862 10.0153C64.0629 10.0576 64.1158 10.1739 64.0206 10.3749L63.9149 10.5652C63.8814 10.6555 63.8141 10.7291 63.7272 10.7706C63.6404 10.812 63.5408 10.818 63.4496 10.7873L61.5355 10.3537L60.8904 11.6333L63.016 12.1091C63.2169 12.162 63.2804 12.2783 63.1746 12.4793L63.0794 12.6696C63.046 12.7579 62.9809 12.8305 62.8969 12.8735C62.8129 12.9165 62.7159 12.9268 62.6247 12.9023L58.9023 12.0457C58.6803 12.0034 58.6274 11.8765 58.7331 11.6862Z" fill="white"/>
<path d="M66.4107 9.26443L66.5376 9.09523C66.5864 9.01228 66.6641 8.95025 66.7558 8.92099C66.8475 8.89172 66.9468 8.89728 67.0346 8.9366L71.3069 10.5546C71.5078 10.6392 71.5501 10.7661 71.4126 10.9458L71.2857 11.115C71.1588 11.3054 71.0002 11.3583 70.7993 11.2737L69.5832 10.8189L67.2461 14.1818C67.1086 14.3616 66.95 14.4144 66.7597 14.3404L65.5224 13.8645C65.3109 13.7905 65.2686 13.6636 65.4061 13.4838L67.7431 10.121L66.527 9.6557C66.3155 9.5711 66.2838 9.4442 66.4107 9.26443Z" fill="white"/>
<path d="M72.4595 16.6775L75.928 13.5684C75.9967 13.5027 76.0865 13.4635 76.1813 13.4577C76.2762 13.4519 76.37 13.4799 76.4462 13.5367L77.5249 14.277C77.7152 14.3933 77.7152 14.5308 77.546 14.6788L76.0232 16.043L79.09 15.6094C79.3045 15.5725 79.525 15.6219 79.7033 15.7469L80.1686 16.0641C80.3589 16.191 80.3272 16.2651 80.0946 16.2862L78.0853 16.4871L77.1653 19.8605C77.1019 20.0826 76.9855 20.1249 76.8058 20.0086L75.4416 19.078C75.2724 18.9722 75.2195 18.803 75.283 18.5915L75.9069 16.7621L75.1138 16.8573L74.088 17.7773C74.0236 17.8458 73.936 17.888 73.8423 17.8958C73.7486 17.9036 73.6553 17.8765 73.5804 17.8196L72.4912 17.0793C72.3114 16.9524 72.3008 16.8255 72.4595 16.6775Z" fill="white"/>
<path d="M78.0219 20.6008L83.6478 19.6067C83.7488 19.5883 83.8528 19.595 83.9506 19.6264C84.0483 19.6577 84.1368 19.7127 84.2083 19.7865L85.1494 20.6959C85.187 20.7228 85.2185 20.7573 85.2419 20.7972C85.2652 20.837 85.2799 20.8814 85.2848 20.9273C85.2898 20.9732 85.2851 21.0197 85.2708 21.0637C85.2566 21.1076 85.2333 21.1481 85.2023 21.1824L82.6009 24.9365C82.4845 25.1268 82.3471 25.1374 82.1884 24.9894L81.1521 23.9953C81.0806 23.9355 81.035 23.8502 81.0252 23.7575C81.0153 23.6648 81.0419 23.5718 81.0992 23.4983L81.702 22.5994L80.0735 21.0343L78.6881 21.267C78.5913 21.287 78.4909 21.2819 78.3965 21.2523C78.3022 21.2227 78.2169 21.1695 78.1488 21.0978L77.9267 20.8863C77.7716 20.7382 77.8034 20.6431 78.0219 20.6008ZM82.199 21.9015L83.1931 20.4421L81.1098 20.844L82.199 21.9015Z" fill="white"/>
<path d="M87.4231 24.1751L87.624 24.0905C87.711 24.0486 87.8102 24.0395 87.9034 24.0647C87.9966 24.09 88.0777 24.1479 88.1316 24.228L90.7859 27.7706C90.9023 27.9292 90.8388 28.0033 90.5956 28.0033L85.2975 27.6226L86.5031 29.2194C86.63 29.3992 86.5983 29.5261 86.3868 29.6107L86.1964 29.6953C86.1132 29.7424 86.015 29.7555 85.9223 29.7319C85.8297 29.7082 85.7498 29.6496 85.6994 29.5684L83.0239 26.0046C82.9076 25.846 82.971 25.772 83.2248 25.772L88.5017 26.1421L87.3173 24.5664C87.1799 24.3866 87.2222 24.2597 87.4231 24.1751Z" fill="white"/>
<path d="M86.8097 30.6788L92.4567 31.5142C92.5587 31.5286 92.6555 31.568 92.7385 31.6289C92.8215 31.6898 92.8882 31.7703 92.9326 31.8632L93.5459 33.0265C93.5706 33.065 93.5872 33.1082 93.5948 33.1534C93.6023 33.1986 93.6005 33.2448 93.5897 33.2893C93.5788 33.3338 93.559 33.3756 93.5315 33.4122C93.504 33.4488 93.4693 33.4795 93.4296 33.5023L89.7707 36.2412C89.6015 36.3787 89.464 36.347 89.3688 36.1566L88.7026 34.8876C88.6535 34.807 88.637 34.7105 88.6567 34.6181C88.6764 34.5257 88.7306 34.4443 88.8083 34.3906L89.6649 33.735L88.618 31.7363L87.2327 31.5142C87.1338 31.5031 87.0394 31.4672 86.9581 31.4099C86.8767 31.3526 86.8112 31.2757 86.7674 31.1864L86.6299 30.9115C86.5347 30.7211 86.5876 30.6471 86.8097 30.6788ZM90.3629 33.2274L91.7693 32.1593L89.6543 31.8844L90.3629 33.2274Z" fill="white"/>
<path d="M90.1725 37.3093L94.8149 37.0132C94.911 37 95.0086 37.023 95.0887 37.0777C95.1689 37.1324 95.2258 37.215 95.2485 37.3093L95.6398 38.5465C95.7138 38.758 95.6292 38.8744 95.4071 38.8744L93.3662 39.0118L96.0522 40.5664C96.2347 40.6786 96.3729 40.8504 96.4435 41.0528L96.6127 41.5921C96.6761 41.8036 96.6127 41.8459 96.4117 41.719L94.7092 40.6404L91.8962 42.7237C91.7165 42.8506 91.6001 42.8188 91.5261 42.6073L91.0291 41.0422C90.9968 40.953 90.9971 40.8552 91.03 40.7661C91.0629 40.6771 91.1263 40.6026 91.2089 40.5558L92.8268 39.4983L92.15 39.0859L90.7647 39.181C90.6717 39.1919 90.5779 39.1691 90.5003 39.1167C90.4226 39.0643 90.3664 38.9859 90.3417 38.8955L89.9504 37.6371C89.8764 37.4362 89.9504 37.3199 90.1725 37.3093Z" fill="white"/>
<path d="M92.1394 43.8552L96.7606 44.3099C96.9827 44.331 97.1096 44.4791 97.1519 44.7435L97.3317 45.9702C97.3528 46.1817 97.2682 46.2663 97.0461 46.2557L95.2696 46.0759L95.4811 47.5247L97.2576 47.7044C97.3569 47.7015 97.4533 47.7375 97.5264 47.8047C97.5995 47.8718 97.6434 47.9649 97.6489 48.064L97.8287 49.3859C97.8604 49.5762 97.7652 49.6608 97.5537 49.6397L92.9219 49.1849C92.8297 49.1829 92.7413 49.1475 92.6733 49.0853C92.6052 49.0231 92.562 48.9382 92.5518 48.8465L92.3614 47.5352C92.3297 47.3237 92.4249 47.218 92.6364 47.2497L94.6033 47.4295L94.3918 45.9807L92.4249 45.801C92.2028 45.7692 92.0759 45.6529 92.0548 45.452L91.8538 44.1407C91.8186 43.9221 91.9138 43.827 92.1394 43.8552Z" fill="white"/>
<path d="M93.5036 50.6971V53.1293C93.5036 53.3408 93.5776 53.4572 93.7257 53.4995L94.0747 53.5841L94.1698 53.6052C94.2544 53.6052 94.3073 53.4995 94.3073 53.3091V51.6277C94.3073 51.0672 94.5082 50.7923 94.9206 50.7923C95.0777 50.7947 95.234 50.816 95.3859 50.8557L96.6126 51.1624C96.929 51.2367 97.2184 51.3978 97.4481 51.6277C97.5621 51.7453 97.6517 51.8843 97.7116 52.0368C97.7716 52.1893 97.8006 52.3522 97.797 52.516V56.1009C97.797 56.323 97.6913 56.4076 97.4798 56.3441L97.2683 56.2912C97.176 56.2735 97.0931 56.2232 97.0348 56.1494C96.9766 56.0756 96.9468 55.9833 96.951 55.8894V53.4889C96.951 53.2668 96.8876 53.1399 96.7501 53.0976L96.4117 53.013H96.3377C96.2531 53.013 96.2002 53.1188 96.2002 53.3197V54.779C96.2002 55.477 95.9676 55.8259 95.5023 55.8259C95.402 55.8267 95.3022 55.8124 95.2062 55.7836L93.8526 55.4347C93.0489 55.2337 92.647 54.7367 92.647 53.9647V50.4962C92.6576 50.2741 92.7634 50.2001 92.9749 50.2529L93.1864 50.2952C93.2787 50.3129 93.3616 50.3633 93.4198 50.4371C93.4781 50.5109 93.5078 50.6032 93.5036 50.6971V50.6971Z" fill="white"/>
<path d="M96.9934 57.7506L97.1943 57.8352C97.3952 57.9304 97.4904 58.0784 97.4587 58.2794L96.7925 62.8054C96.7643 63.0169 96.6479 63.0804 96.4435 62.9958L96.2426 62.9112C96.1526 62.8819 96.0769 62.8202 96.0299 62.7381C95.983 62.656 95.9683 62.5594 95.9888 62.467L96.1685 61.1769L92.3827 59.6224C92.293 59.5953 92.2164 59.5361 92.1677 59.4561C92.1189 59.3761 92.1013 59.2809 92.1183 59.1888L92.3087 57.8775C92.3404 57.6448 92.4567 57.5814 92.6682 57.6766L96.4541 59.2311L96.6444 57.941C96.6797 57.7295 96.796 57.666 96.9934 57.7506Z" fill="white"/>
<path d="M91.9174 62.1076L95.3119 66.7077C95.3737 66.7897 95.4146 66.8855 95.4311 66.9868C95.4477 67.0881 95.4395 67.1919 95.4071 67.2893L95.0053 68.5372C94.9967 68.5833 94.9787 68.6271 94.9522 68.6659C94.9258 68.7046 94.8917 68.7375 94.8519 68.7624C94.8121 68.7872 94.7676 68.8035 94.7212 68.8103C94.6748 68.817 94.6275 68.814 94.5823 68.8015L90.0668 68.1353C89.8553 68.1141 89.7707 67.9978 89.8447 67.7863L90.2783 66.4222C90.2882 66.3768 90.3071 66.3338 90.3339 66.2959C90.3607 66.2579 90.3948 66.2257 90.4342 66.201C90.4736 66.1764 90.5175 66.1599 90.5634 66.1525C90.6092 66.145 90.6561 66.1469 90.7013 66.1578L91.7693 66.2953L92.4461 64.138L91.6319 63.0064C91.5703 62.9285 91.5292 62.8363 91.5126 62.7384C91.496 62.6404 91.5043 62.5399 91.5367 62.446L91.6319 62.1499C91.6953 61.949 91.7905 61.9278 91.9174 62.1076ZM92.6153 66.4327L94.3708 66.676L93.0806 64.984L92.6153 66.4327Z" fill="white"/>
<path d="M89.5909 69.1716L93.0807 72.2489C93.1555 72.3075 93.2064 72.3914 93.2239 72.4848C93.2414 72.5782 93.2243 72.6748 93.1758 72.7565L92.2875 74.4591C92.2521 74.5474 92.1839 74.6186 92.0973 74.658C92.0106 74.6974 91.9121 74.7019 91.8222 74.6706L87.9412 73.74L87.9201 73.7611L90.9234 76.4049C91.003 76.4623 91.0573 76.5483 91.0751 76.6448C91.0928 76.7414 91.0726 76.841 91.0186 76.923L90.9234 77.0922C90.8282 77.2932 90.6907 77.3143 90.5321 77.1663L87.0529 74.0784C86.8943 73.9303 86.852 73.7611 86.9472 73.5813L87.8143 71.9105C87.852 71.8211 87.9215 71.7488 88.0095 71.7078C88.0974 71.6667 88.1975 71.6598 88.2902 71.6884L92.2452 72.6296L89.1997 69.9436C89.1212 69.888 89.0666 69.8047 89.047 69.7106C89.0274 69.6164 89.0442 69.5183 89.0939 69.436L89.1891 69.2562C89.2948 69.0553 89.4217 69.0235 89.5909 69.1716Z" fill="white"/>
<path d="M17.6179 83.6802L23.2438 82.6544C23.3438 82.6317 23.4481 82.6353 23.5464 82.6649C23.6446 82.6946 23.7335 82.7493 23.8042 82.8236L24.756 83.7225C24.7931 83.7512 24.8239 83.7872 24.8463 83.8284C24.8688 83.8696 24.8824 83.915 24.8864 83.9617C24.8904 84.0085 24.8846 84.0555 24.8694 84.0999C24.8543 84.1443 24.83 84.185 24.7983 84.2195L22.2286 87.9842C22.1122 88.1746 21.9642 88.1851 21.8056 88.0371L20.7692 87.0431C20.6977 86.9832 20.6522 86.898 20.6423 86.8052C20.6324 86.7125 20.659 86.6196 20.7163 86.546L21.3191 85.6472L19.68 84.0926L18.2947 84.3359C18.1978 84.3558 18.0975 84.3508 18.0031 84.3212C17.9087 84.2916 17.8235 84.2384 17.7554 84.1667L17.5333 83.9552C17.3747 83.8071 17.4064 83.7119 17.6179 83.6802ZM21.8056 84.9492L22.789 83.4793L20.7058 83.8917L21.8056 84.9492Z" fill="white"/>
<path d="M23.6772 89.0946L27.1353 85.9856C27.2016 85.9157 27.2919 85.8736 27.3881 85.8677C27.4843 85.8618 27.5791 85.8926 27.6534 85.9538L29.2397 87.0219C29.3226 87.0707 29.3839 87.1491 29.4114 87.2413C29.4389 87.3335 29.4304 87.4327 29.3877 87.5189L28.013 91.273H28.0341L31.0057 88.5976C31.0738 88.5269 31.1659 88.4845 31.2639 88.4786C31.3618 88.4727 31.4584 88.5039 31.5344 88.5658L31.6931 88.6716C31.8834 88.7985 31.8834 88.936 31.7142 89.084L28.2456 92.1719C28.0764 92.3199 27.9178 92.3411 27.7486 92.2248L26.1835 91.1673C26.1006 91.1184 26.0385 91.0408 26.0093 90.9491C25.98 90.8574 25.9856 90.7581 26.0249 90.6703L27.4102 86.8527H27.3996L24.3858 89.5705C24.2166 89.7185 24.0474 89.7397 23.8676 89.6128L23.6984 89.507C23.5186 89.3801 23.508 89.2426 23.6772 89.0946Z" fill="white"/>
<path d="M29.8214 93.0602L32.7401 89.4435C32.7941 89.3633 32.8766 89.3066 32.9709 89.285C33.0651 89.2634 33.1641 89.2785 33.2477 89.3272L34.982 90.1309C35.0725 90.1645 35.147 90.2312 35.1902 90.3176C35.2334 90.404 35.2421 90.5036 35.2146 90.5962L34.4532 94.5195H34.4744L36.9912 91.4105C37.0436 91.3285 37.1253 91.2696 37.2197 91.246C37.3141 91.2224 37.414 91.2358 37.4988 91.2836L37.6786 91.3682C37.8795 91.4633 37.9112 91.5902 37.7632 91.7594L34.8339 95.3761C34.6859 95.5453 34.5272 95.5876 34.3475 95.503L32.6343 94.7099C32.5433 94.6763 32.468 94.61 32.4231 94.5241C32.3781 94.4381 32.3667 94.3385 32.3911 94.2446L33.1631 90.2472H33.1419L30.5934 93.4091C30.5397 93.4866 30.4599 93.5421 30.3685 93.5654C30.2772 93.5887 30.1806 93.5783 30.0963 93.536L29.9166 93.4514C29.7156 93.3668 29.6839 93.2294 29.8214 93.0602Z" fill="white"/>
<path d="M36.4307 95.8838L38.8946 91.9499C38.9414 91.8673 39.0159 91.8039 39.105 91.771C39.194 91.7381 39.2918 91.7378 39.3811 91.7701L40.6395 92.1825C40.8404 92.246 40.8827 92.3729 40.7558 92.5738L38.2919 96.4971C38.2487 96.5805 38.1762 96.645 38.0884 96.6781C38.0005 96.7113 37.9035 96.7109 37.816 96.6769L36.5576 96.2645C36.3602 96.201 36.3179 96.0741 36.4307 95.8838Z" fill="white"/>
<path d="M41.4644 97.3326L41.8345 92.8065C41.8557 92.595 41.9614 92.5104 42.1729 92.5527L43.5899 92.8276C43.6348 92.8312 43.6784 92.8443 43.7178 92.866C43.7573 92.8877 43.7916 92.9175 43.8186 92.9535C43.8456 92.9895 43.8647 93.0309 43.8745 93.0748C43.8843 93.1187 43.8846 93.1643 43.8755 93.2083L43.5688 96.9519L46.6355 93.7265C46.7017 93.6484 46.7877 93.5895 46.8844 93.556C46.9812 93.5225 47.0851 93.5157 47.1854 93.5362L47.4815 93.589C47.693 93.6313 47.7142 93.7371 47.5661 93.8957L43.8543 97.8084C43.7845 97.8887 43.6956 97.9502 43.5958 97.9872C43.496 98.0241 43.3886 98.0354 43.2833 98.0199L41.7605 97.7133C41.7153 97.7095 41.6714 97.6964 41.6316 97.6748C41.5917 97.6532 41.5568 97.6236 41.529 97.5878C41.5011 97.5521 41.481 97.5109 41.4699 97.467C41.4588 97.423 41.4569 97.3773 41.4644 97.3326V97.3326Z" fill="white"/>
<path d="M47.3017 98.2736L48.6342 93.8322C48.6523 93.7367 48.7061 93.6518 48.7848 93.5948C48.8634 93.5378 48.9609 93.513 49.0572 93.5255L52.8642 93.7053C53.0757 93.7159 53.1497 93.8216 53.0862 94.0331L53.0228 94.2446C53.0047 94.3372 52.952 94.4195 52.8753 94.4745C52.7987 94.5295 52.7039 94.5532 52.6104 94.5407L50.4319 94.4455L50.0829 95.6405L52.0499 95.7251C52.2614 95.7357 52.3354 95.852 52.272 96.0635L52.1979 96.2644C52.1799 96.3578 52.1276 96.4411 52.0513 96.4978C51.975 96.5546 51.8801 96.5807 51.7855 96.5711L49.8291 96.4759L49.4167 97.8401L51.5846 97.9458C51.7961 97.9564 51.8701 98.0621 51.8067 98.2736L51.7538 98.4851C51.7358 98.5785 51.6835 98.6618 51.6071 98.7186C51.5308 98.7753 51.436 98.8015 51.3414 98.7918L47.5238 98.612C47.3123 98.6015 47.2277 98.4851 47.3017 98.2736Z" fill="white"/>
<path d="M53.3611 98.4641L54.059 93.864C54.0691 93.7685 54.113 93.6797 54.1828 93.6137C54.2526 93.5477 54.3438 93.509 54.4397 93.5045L58.1833 93.1555C58.8812 93.092 59.2513 93.293 59.2936 93.7583C59.3011 93.9066 59.294 94.0554 59.2725 94.2024L59.1139 95.207C59.0293 95.7358 58.7332 96.0319 58.2044 96.0847L58.8389 97.9459C58.9024 98.1574 58.8389 98.2632 58.6274 98.2843L57.1258 98.4324C57.0334 98.4479 56.9386 98.4267 56.8616 98.3734C56.7845 98.3201 56.7314 98.2388 56.7134 98.1469L56.2163 96.2645L55.6136 96.328L55.3175 98.2737C55.3124 98.3675 55.2729 98.456 55.2065 98.5224C55.1402 98.5887 55.0516 98.6282 54.9579 98.6333L53.6466 98.7602C53.4351 98.7814 53.3399 98.6756 53.3611 98.4641ZM57.3161 94.3822C57.3245 94.3368 57.328 94.2908 57.3267 94.2447C57.3197 94.153 57.2351 94.1107 57.0729 94.1178L55.9308 94.2235L55.751 95.4502L56.8826 95.3445C56.9688 95.3447 57.0518 95.3119 57.1147 95.253C57.1776 95.194 57.2156 95.1133 57.221 95.0272L57.3161 94.3822Z" fill="white"/>
<path d="M60.5839 97.0364L62.9421 96.4548C63.1431 96.4019 63.2382 96.3068 63.2382 96.1481V95.778C63.2382 95.7357 63.2382 95.704 63.2277 95.6934C63.2171 95.6828 63.1113 95.5877 62.921 95.63L61.2819 96.0318C60.7425 96.1693 60.4253 96.0318 60.3301 95.6405C60.2951 95.4879 60.2773 95.3318 60.2772 95.1752V93.9062C60.2692 93.5827 60.3536 93.2635 60.5205 92.9862C60.6079 92.8472 60.7221 92.727 60.8565 92.6326C60.9908 92.5382 61.1426 92.4715 61.303 92.4363L64.7822 91.5692C64.9937 91.5163 65.0994 91.6009 65.0889 91.823V92.0451C65.0783 92.2671 64.9831 92.394 64.7822 92.4469L62.4557 93.0285C62.2336 93.0814 62.1279 93.1766 62.1279 93.3246V93.663C62.1263 93.6847 62.1299 93.7065 62.1384 93.7265C62.1596 93.8216 62.2653 93.8322 62.4663 93.7899L63.8833 93.4304C64.5601 93.2717 64.962 93.4092 65.0677 93.864C65.0898 93.9575 65.1005 94.0534 65.0994 94.1495V95.5454C65.0994 96.3808 64.7187 96.899 63.9679 97.0787L60.5945 97.9142C60.3724 97.967 60.2667 97.8824 60.2667 97.6604V97.4489C60.2621 97.3537 60.2914 97.2599 60.3495 97.1844C60.4076 97.1088 60.4907 97.0564 60.5839 97.0364V97.0364Z" fill="white"/>
<path d="M66.7174 96.0212L67.997 90.4588C68.0186 90.3577 68.0646 90.2635 68.131 90.1842C68.1973 90.105 68.282 90.0431 68.3777 90.0041L69.5832 89.4965C69.6225 89.4713 69.6668 89.4551 69.713 89.449C69.7592 89.4429 69.8062 89.4471 69.8507 89.4612C69.8951 89.4754 69.9359 89.4991 69.9701 89.5308C70.0043 89.5625 70.0311 89.6013 70.0485 89.6445L72.4914 93.4938C72.6183 93.6736 72.576 93.811 72.375 93.8956L71.0637 94.4561C70.9809 94.5018 70.8833 94.513 70.7923 94.4873C70.7012 94.4616 70.624 94.401 70.5773 94.3186L69.9957 93.4092L67.9124 94.2975L67.5846 95.6617C67.5682 95.7592 67.5264 95.8507 67.4632 95.9269C67.4001 96.003 67.3179 96.0611 67.225 96.0952L66.9395 96.2221C66.7386 96.3067 66.6646 96.2433 66.7174 96.0212ZM69.5409 92.6795L68.5786 91.199L68.1451 93.2717L69.5409 92.6795Z" fill="white"/>
<path d="M74.0775 92.5949L72.597 88.1957C72.556 88.107 72.5507 88.0059 72.5822 87.9134C72.6137 87.8209 72.6796 87.744 72.7662 87.6987L75.9387 85.6789C76.5203 85.2982 76.9433 85.3088 77.1971 85.7001C77.273 85.83 77.3334 85.9684 77.3769 86.1125L77.7047 87.0748C77.8739 87.5824 77.7364 87.9842 77.2923 88.2698L78.7093 89.6339C78.868 89.7926 78.8574 89.9195 78.6776 90.0358L77.4086 90.8501C77.3338 90.9062 77.24 90.931 77.1472 90.9192C77.0544 90.9073 76.9699 90.8598 76.9116 90.7866L75.6109 89.3484L75.1033 89.6657L75.7272 91.5374C75.8012 91.7489 75.7483 91.9181 75.5686 92.0239L74.4582 92.7324C74.2784 92.8487 74.1515 92.8064 74.0775 92.5949ZM75.7272 87.17C75.7134 87.1262 75.6957 87.0837 75.6743 87.0431C75.625 86.9585 75.5298 86.9585 75.3888 87.0431L74.4265 87.6564L74.8283 88.8302L75.7907 88.2169C75.8652 88.1764 75.9218 88.1093 75.9492 88.029C75.9766 87.9487 75.9729 87.861 75.9387 87.7833L75.7272 87.17Z" fill="white"/>
<path d="M81.9982 80.7404L82.0299 84.7166L82.7913 86.1654C82.8398 86.2471 82.8569 86.3437 82.8394 86.4371C82.8219 86.5305 82.7709 86.6143 82.6961 86.673L81.7232 87.5295C81.554 87.6776 81.4166 87.6564 81.3108 87.4555L80.5071 85.9221L77.8105 84.5685C77.599 84.4628 77.5779 84.3359 77.7259 84.1984L79.1007 82.9717C79.1361 82.9361 79.1826 82.9135 79.2326 82.9078C79.2825 82.902 79.333 82.9134 79.3756 82.94L81.2685 83.9129L81.2474 81.3961C81.2391 81.3051 81.251 81.2134 81.282 81.1276C81.3131 81.0417 81.3626 80.9637 81.4272 80.899L81.755 80.6135C81.9136 80.476 81.9876 80.5183 81.9982 80.7404Z" fill="white"/>
</svg>
