<svg width="150" height="150" viewBox="0 0 150 150" fill="none" xmlns="http://www.w3.org/2000/svg">
<circle cx="75" cy="75" r="67.5" fill="white" stroke="#1F4989" stroke-width="15"/>
<path d="M54.125 66.7388V86H50.9478V70.5093L46.2412 72.1045V69.481L53.7427 66.7388H54.125ZM73.3071 74.7939V77.9316C73.3071 79.4346 73.1577 80.7178 72.8589 81.7812C72.5688 82.8359 72.147 83.6929 71.5933 84.3521C71.0396 85.0112 70.376 85.4946 69.6025 85.8022C68.8379 86.1099 67.981 86.2637 67.0317 86.2637C66.2759 86.2637 65.5728 86.167 64.9224 85.9736C64.2808 85.7803 63.7007 85.4771 63.1821 85.064C62.6636 84.6509 62.2197 84.1191 61.8506 83.4688C61.4902 82.8096 61.209 82.0229 61.0068 81.1089C60.8135 80.1948 60.7168 79.1357 60.7168 77.9316V74.7939C60.7168 73.2822 60.8662 72.0078 61.165 70.9707C61.4639 69.9248 61.8901 69.0767 62.4438 68.4263C62.9976 67.7671 63.6567 67.2881 64.4214 66.9893C65.1948 66.6904 66.0562 66.541 67.0054 66.541C67.77 66.541 68.4731 66.6377 69.1147 66.8311C69.7651 67.0156 70.3452 67.3101 70.855 67.7144C71.3735 68.1187 71.813 68.646 72.1733 69.2964C72.5425 69.938 72.8237 70.7158 73.0171 71.6299C73.2104 72.5352 73.3071 73.5898 73.3071 74.7939ZM70.1299 78.3799V74.3193C70.1299 73.5547 70.0859 72.8823 69.998 72.3022C69.9102 71.7134 69.7783 71.2168 69.6025 70.8125C69.4355 70.3994 69.2246 70.0654 68.9697 69.8105C68.7148 69.5469 68.4248 69.3579 68.0996 69.2437C67.7744 69.1206 67.4097 69.0591 67.0054 69.0591C66.5132 69.0591 66.0737 69.1558 65.687 69.3491C65.3003 69.5337 64.9751 69.8325 64.7114 70.2456C64.4478 70.6587 64.2456 71.2036 64.105 71.8804C63.9731 72.5483 63.9072 73.3613 63.9072 74.3193V78.3799C63.9072 79.1533 63.9512 79.8345 64.0391 80.4233C64.127 81.0122 64.2588 81.5176 64.4346 81.9395C64.6104 82.3525 64.8213 82.6953 65.0674 82.9678C65.3223 83.2314 65.6123 83.4248 65.9375 83.5479C66.2715 83.6709 66.6362 83.7324 67.0317 83.7324C67.5327 83.7324 67.9766 83.6357 68.3633 83.4424C68.75 83.249 69.0752 82.9414 69.3389 82.5195C69.6025 82.0889 69.8003 81.5308 69.9321 80.8452C70.064 80.1597 70.1299 79.3379 70.1299 78.3799ZM88.6528 74.7939V77.9316C88.6528 79.4346 88.5034 80.7178 88.2046 81.7812C87.9146 82.8359 87.4927 83.6929 86.939 84.3521C86.3853 85.0112 85.7217 85.4946 84.9482 85.8022C84.1836 86.1099 83.3267 86.2637 82.3774 86.2637C81.6216 86.2637 80.9185 86.167 80.2681 85.9736C79.6265 85.7803 79.0464 85.4771 78.5278 85.064C78.0093 84.6509 77.5654 84.1191 77.1963 83.4688C76.8359 82.8096 76.5547 82.0229 76.3525 81.1089C76.1592 80.1948 76.0625 79.1357 76.0625 77.9316V74.7939C76.0625 73.2822 76.2119 72.0078 76.5107 70.9707C76.8096 69.9248 77.2358 69.0767 77.7896 68.4263C78.3433 67.7671 79.0024 67.2881 79.7671 66.9893C80.5405 66.6904 81.4019 66.541 82.3511 66.541C83.1157 66.541 83.8188 66.6377 84.4604 66.8311C85.1108 67.0156 85.6909 67.3101 86.2007 67.7144C86.7192 68.1187 87.1587 68.646 87.519 69.2964C87.8882 69.938 88.1694 70.7158 88.3628 71.6299C88.5562 72.5352 88.6528 73.5898 88.6528 74.7939ZM85.4756 78.3799V74.3193C85.4756 73.5547 85.4316 72.8823 85.3438 72.3022C85.2559 71.7134 85.124 71.2168 84.9482 70.8125C84.7812 70.3994 84.5703 70.0654 84.3154 69.8105C84.0605 69.5469 83.7705 69.3579 83.4453 69.2437C83.1201 69.1206 82.7554 69.0591 82.3511 69.0591C81.8589 69.0591 81.4194 69.1558 81.0327 69.3491C80.646 69.5337 80.3208 69.8325 80.0571 70.2456C79.7935 70.6587 79.5913 71.2036 79.4507 71.8804C79.3188 72.5483 79.2529 73.3613 79.2529 74.3193V78.3799C79.2529 79.1533 79.2969 79.8345 79.3848 80.4233C79.4727 81.0122 79.6045 81.5176 79.7803 81.9395C79.9561 82.3525 80.167 82.6953 80.4131 82.9678C80.668 83.2314 80.958 83.4248 81.2832 83.5479C81.6172 83.6709 81.9819 83.7324 82.3774 83.7324C82.8784 83.7324 83.3223 83.6357 83.709 83.4424C84.0957 83.249 84.4209 82.9414 84.6846 82.5195C84.9482 82.0889 85.146 81.5308 85.2778 80.8452C85.4097 80.1597 85.4756 79.3379 85.4756 78.3799ZM91.3555 71.5112V70.4961C91.3555 69.7666 91.5137 69.103 91.8301 68.5054C92.1465 67.9077 92.6079 67.4287 93.2144 67.0684C93.8208 66.708 94.5503 66.5278 95.4028 66.5278C96.2817 66.5278 97.02 66.708 97.6177 67.0684C98.2241 67.4287 98.6855 67.9077 99.002 68.5054C99.3184 69.103 99.4766 69.7666 99.4766 70.4961V71.5112C99.4766 72.2231 99.3184 72.8779 99.002 73.4756C98.6943 74.0732 98.2373 74.5522 97.6309 74.9126C97.0332 75.2729 96.2993 75.4531 95.4292 75.4531C94.5679 75.4531 93.8296 75.2729 93.2144 74.9126C92.6079 74.5522 92.1465 74.0732 91.8301 73.4756C91.5137 72.8779 91.3555 72.2231 91.3555 71.5112ZM93.5571 70.4961V71.5112C93.5571 71.8628 93.623 72.1968 93.7549 72.5132C93.8955 72.8296 94.1064 73.0845 94.3877 73.2778C94.6689 73.4712 95.0161 73.5679 95.4292 73.5679C95.8511 73.5679 96.1938 73.4712 96.4575 73.2778C96.73 73.0845 96.9321 72.8296 97.064 72.5132C97.1958 72.1968 97.2617 71.8628 97.2617 71.5112V70.4961C97.2617 70.1357 97.1914 69.7974 97.0508 69.481C96.9189 69.1558 96.7168 68.8965 96.4443 68.7031C96.1719 68.5098 95.8247 68.4131 95.4028 68.4131C94.9985 68.4131 94.6558 68.5098 94.3745 68.7031C94.1021 68.8965 93.8955 69.1558 93.7549 69.481C93.623 69.7974 93.5571 70.1357 93.5571 70.4961ZM100.61 82.3218V81.2935C100.61 80.5728 100.769 79.9136 101.085 79.3159C101.41 78.7183 101.876 78.2393 102.482 77.8789C103.089 77.5186 103.818 77.3384 104.671 77.3384C105.55 77.3384 106.288 77.5186 106.886 77.8789C107.492 78.2393 107.949 78.7183 108.257 79.3159C108.573 79.9136 108.731 80.5728 108.731 81.2935V82.3218C108.731 83.0425 108.573 83.7017 108.257 84.2993C107.949 84.897 107.497 85.376 106.899 85.7363C106.301 86.0967 105.572 86.2769 104.71 86.2769C103.84 86.2769 103.098 86.0967 102.482 85.7363C101.876 85.376 101.41 84.897 101.085 84.2993C100.769 83.7017 100.61 83.0425 100.61 82.3218ZM102.825 81.2935V82.3218C102.825 82.6733 102.896 83.0073 103.036 83.3237C103.186 83.6401 103.401 83.8994 103.682 84.1016C103.963 84.2949 104.302 84.3916 104.697 84.3916C105.146 84.3916 105.506 84.2949 105.778 84.1016C106.051 83.8994 106.244 83.6445 106.358 83.3369C106.481 83.0205 106.543 82.6821 106.543 82.3218V81.2935C106.543 80.9331 106.473 80.5947 106.332 80.2783C106.2 79.9619 105.994 79.707 105.712 79.5137C105.44 79.3203 105.093 79.2236 104.671 79.2236C104.258 79.2236 103.915 79.3203 103.643 79.5137C103.37 79.707 103.164 79.9619 103.023 80.2783C102.891 80.5947 102.825 80.9331 102.825 81.2935ZM105.462 69.5469L96.0884 84.5498L94.4668 83.6138L103.84 68.6108L105.462 69.5469Z" fill="black"/>
</svg>
