<svg width="24" height="24" viewBox="0 0 24 24" fill="none" xmlns="http://www.w3.org/2000/svg">
<path d="M3.85781 0.0883408C3.54375 0.252403 3.49219 0.42584 3.49219 1.31647V2.0899L2.75625 2.10865C2.15625 2.1274 1.96406 2.15553 1.73906 2.23521C0.95625 2.51646 0.375 3.1024 0.107813 3.87115L0 4.18521V12.2946V20.404L0.107813 20.718C0.375 21.4821 0.942187 22.0587 1.73906 22.3586L2.01562 22.4665L8.75625 22.4805L15.4969 22.4899L15.8391 22.7852C16.8234 23.6243 18.0703 24.0461 19.3359 23.9758C21.8438 23.8305 23.8359 21.8149 23.9578 19.3024C24.0516 17.4555 23.1281 15.7727 21.4969 14.8024L21.075 14.554L21.0609 9.34615L21.0469 4.13834L20.925 3.82428C20.6203 3.04615 20.0766 2.51178 19.3078 2.23521C19.0828 2.15553 18.8906 2.1274 18.2953 2.10865L17.5547 2.0899V1.3399C17.5547 0.468027 17.5031 0.29459 17.1797 0.130527C16.9453 0.01334 16.7578 0.01334 16.5234 0.130527C16.2 0.29459 16.1484 0.468027 16.1484 1.34928V2.09928H14.7422H13.3359V1.34928C13.3359 0.688339 13.3266 0.571152 13.2422 0.411777C13.1344 0.20084 12.8672 0.0367775 12.6328 0.0367775C12.3984 0.0367775 12.1313 0.20084 12.0234 0.411777C11.9391 0.571152 11.9297 0.688339 11.9297 1.34928V2.09928H10.5234H9.11719V1.34928C9.11719 0.688339 9.10781 0.571152 9.02344 0.411777C8.91562 0.20084 8.64844 0.0367775 8.41406 0.0367775C8.17969 0.0367775 7.9125 0.20084 7.80469 0.411777C7.72031 0.571152 7.71094 0.688339 7.71094 1.34928V2.09928H6.30469H4.89844V1.32584C4.89844 0.641464 4.88906 0.528965 4.80469 0.364902C4.63125 0.0227146 4.20938 -0.0991592 3.85781 0.0883408ZM3.49219 4.27896C3.49219 4.96334 3.50156 5.07584 3.58594 5.2399C3.69375 5.45084 3.96094 5.6149 4.19531 5.6149C4.42969 5.6149 4.69688 5.45084 4.80469 5.2399C4.88906 5.07584 4.89844 4.96334 4.89844 4.27896V3.50553H6.30469H7.71094V4.27896C7.71094 4.96334 7.72031 5.07584 7.80469 5.2399C7.9125 5.45084 8.17969 5.6149 8.41406 5.6149C8.64844 5.6149 8.91562 5.45084 9.02344 5.2399C9.10781 5.07584 9.11719 4.96334 9.11719 4.27896V3.50553H10.5234H11.9297V4.27896C11.9297 4.96334 11.9391 5.07584 12.0234 5.2399C12.1313 5.45084 12.3984 5.6149 12.6328 5.6149C12.8672 5.6149 13.1344 5.45084 13.2422 5.2399C13.3266 5.07584 13.3359 4.96334 13.3359 4.27896V3.50553H14.7422H16.1484V4.27896C16.1484 5.18834 16.2 5.35709 16.5234 5.52115C16.7578 5.63834 16.9453 5.63834 17.1797 5.52115C17.5031 5.35709 17.5547 5.18834 17.5547 4.27896V3.50553H18.1078C18.7875 3.50553 19.0359 3.58053 19.3125 3.85709C19.6406 4.18053 19.6641 4.31178 19.6641 5.78834V7.06803H10.5234H1.38281V5.78834C1.38281 4.31178 1.40625 4.18053 1.73438 3.85709C2.01094 3.57584 2.23125 3.5149 2.92031 3.51021L3.49219 3.50553V4.27896ZM19.6641 11.3196V14.1696L18.9703 14.1743C18.3891 14.179 18.2109 14.1977 17.8313 14.3008C15.9516 14.7977 14.5406 16.3399 14.2031 18.2665C14.0484 19.1477 14.1609 20.0899 14.5313 20.9993C14.5641 21.079 14.2547 21.0837 8.475 21.0837C1.63125 21.0837 2.10938 21.1071 1.73438 20.7321C1.35938 20.3571 1.38281 20.8024 1.38281 14.2774V8.47428H10.5234H19.6641V11.3196ZM19.7484 15.6274C21.4547 15.979 22.6641 17.5446 22.5563 19.2555C22.5375 19.4993 22.4906 19.818 22.4531 19.9633C22.1109 21.2383 21.0469 22.2415 19.7484 22.5086C17.3156 23.0102 15.1125 20.8118 15.6141 18.3743C16.0031 16.4758 17.8641 15.2383 19.7484 15.6274Z" fill="black"/>
<path d="M3.15469 9.9793C3.04688 10.0355 2.93906 10.1434 2.88281 10.2559C2.79375 10.4293 2.78906 10.5277 2.78906 11.9902C2.78906 13.4527 2.79375 13.5512 2.88281 13.7246C2.94375 13.8465 3.04219 13.9449 3.16406 14.0059C3.3375 14.0949 3.43594 14.0996 4.89844 14.0996C6.36094 14.0996 6.45938 14.0949 6.63281 14.0059C6.75469 13.9449 6.85313 13.8465 6.91406 13.7246C7.00313 13.5512 7.00781 13.4527 7.00781 11.9902C7.00781 10.5277 7.00313 10.4293 6.91406 10.2559C6.85313 10.134 6.75469 10.0355 6.63281 9.97461C6.45938 9.88555 6.36094 9.88086 4.88906 9.88086C3.42656 9.88555 3.31875 9.89023 3.15469 9.9793ZM5.60156 11.9902V12.6934H4.89844H4.19531V11.9902V11.2871H4.89844H5.60156V11.9902Z" fill="black"/>
<path d="M8.77969 9.9793C8.67188 10.0355 8.56406 10.1434 8.50781 10.2559C8.41875 10.4293 8.41406 10.5277 8.41406 11.9902C8.41406 13.4527 8.41875 13.5512 8.50781 13.7246C8.56875 13.8465 8.66719 13.9449 8.78906 14.0059C8.9625 14.0949 9.06094 14.0996 10.5234 14.0996C11.9859 14.0996 12.0844 14.0949 12.2578 14.0059C12.3797 13.9449 12.4781 13.8465 12.5391 13.7246C12.6281 13.5512 12.6328 13.4527 12.6328 11.9902C12.6328 10.5277 12.6281 10.4293 12.5391 10.2559C12.4781 10.134 12.3797 10.0355 12.2578 9.97461C12.0844 9.88555 11.9859 9.88086 10.5141 9.88086C9.05156 9.88555 8.94375 9.89023 8.77969 9.9793ZM11.2266 11.9902V12.6934H10.5234H9.82031V11.9902V11.2871H10.5141H11.2266V11.9902Z" fill="black"/>
<path d="M14.4047 9.9793C14.2969 10.0355 14.1891 10.1434 14.1328 10.2559C14.0438 10.4293 14.0391 10.5277 14.0391 11.9902C14.0391 13.4527 14.0438 13.5512 14.1328 13.7246C14.1938 13.8465 14.2922 13.9449 14.4141 14.0059C14.5875 14.0949 14.6859 14.0996 16.1484 14.0996C17.6109 14.0996 17.7094 14.0949 17.8828 14.0059C18.0047 13.9449 18.1031 13.8465 18.1641 13.7246C18.2531 13.5512 18.2578 13.4527 18.2578 11.9902C18.2578 10.5277 18.2531 10.4293 18.1641 10.2559C18.1031 10.134 18.0047 10.0355 17.8828 9.97461C17.7094 9.88555 17.6109 9.88086 16.1391 9.88086C14.6766 9.88555 14.5688 9.89023 14.4047 9.9793ZM16.8516 11.9902V12.6934H16.1484H15.4453V11.9902V11.2871H16.1484H16.8516V11.9902Z" fill="black"/>
<path d="M3.15469 15.6043C3.04688 15.6605 2.93906 15.7684 2.88281 15.8809C2.79375 16.0543 2.78906 16.1527 2.78906 17.6152C2.78906 19.0777 2.79375 19.1762 2.88281 19.3496C2.94375 19.4715 3.04219 19.5699 3.16406 19.6309C3.3375 19.7199 3.43594 19.7246 4.89844 19.7246C6.36094 19.7246 6.45938 19.7199 6.63281 19.6309C6.75469 19.5699 6.85313 19.4715 6.91406 19.3496C7.00313 19.1762 7.00781 19.0777 7.00781 17.6152C7.00781 16.1527 7.00313 16.0543 6.91406 15.8809C6.85313 15.759 6.75469 15.6605 6.63281 15.5996C6.45938 15.5105 6.36094 15.5059 4.88906 15.5059C3.42656 15.5105 3.31875 15.5152 3.15469 15.6043ZM5.60156 17.6152V18.3184H4.89844H4.19531V17.6152V16.9121H4.89844H5.60156V17.6152Z" fill="black"/>
<path d="M8.77969 15.6043C8.67188 15.6605 8.56406 15.7684 8.50781 15.8809C8.41875 16.0543 8.41406 16.1527 8.41406 17.6152C8.41406 19.0777 8.41875 19.1762 8.50781 19.3496C8.56875 19.4715 8.66719 19.5699 8.78906 19.6309C8.9625 19.7199 9.06094 19.7246 10.5234 19.7246C11.9859 19.7246 12.0844 19.7199 12.2578 19.6309C12.3797 19.5699 12.4781 19.4715 12.5391 19.3496C12.6281 19.1762 12.6328 19.0777 12.6328 17.6152C12.6328 16.1527 12.6281 16.0543 12.5391 15.8809C12.4781 15.759 12.3797 15.6605 12.2578 15.5996C12.0844 15.5105 11.9859 15.5059 10.5141 15.5059C9.05156 15.5105 8.94375 15.5152 8.77969 15.6043ZM11.2266 17.6152V18.3184H10.5234H9.82031V17.6152V16.9121H10.5234H11.2266V17.6152Z" fill="black"/>
<path d="M18.6703 17.0105C18.3469 17.1793 18.3047 17.3387 18.3047 18.3418C18.3047 19.1199 18.3141 19.2324 18.3984 19.3965C18.5672 19.7246 18.7266 19.7715 19.6875 19.7715C20.4188 19.7715 20.5312 19.7621 20.6953 19.6777C20.9062 19.5699 21.0703 19.3027 21.0703 19.0684C21.0703 18.834 20.9062 18.5668 20.6953 18.459C20.5547 18.3887 20.4188 18.3652 20.1094 18.3652H19.7109V17.9199C19.7109 17.3715 19.6219 17.1512 19.3359 17.0059C19.1063 16.8887 18.8953 16.8887 18.6703 17.0105Z" fill="black"/>
</svg>
