<svg width="24" height="24" viewBox="0 0 24 24" fill="none" xmlns="http://www.w3.org/2000/svg">
<g clip-path="url(#clip0_353_16562)">
<path d="M10.4203 0.0843735C9.96563 0.24375 9.61875 0.604687 9.49219 1.05C9.45469 1.18125 9.37969 1.55156 9.32812 1.875C9.27656 2.19844 9.21094 2.56875 9.18281 2.70469L9.13594 2.94375L8.79844 3.07031C8.61094 3.13594 8.24531 3.29062 7.98281 3.40781L7.50469 3.62344L6.7875 3.10781C6.39375 2.82187 6 2.55469 5.91563 2.5125C5.55 2.325 4.97813 2.33906 4.57031 2.54062C4.4625 2.59687 3.98438 3.03281 3.46406 3.55781C2.38125 4.64531 2.32031 4.73906 2.325 5.34375C2.325 5.83594 2.37188 5.93906 3.07031 6.90937L3.56719 7.60312L3.3375 8.12812C3.20625 8.41406 3.06563 8.76562 3.02344 8.90625C2.97656 9.04687 2.92031 9.1875 2.8875 9.21562C2.85938 9.24375 2.4375 9.33281 1.94531 9.4125C0.946875 9.58125 0.679688 9.67969 0.398438 9.99375C0.3 10.0969 0.178125 10.2797 0.121875 10.4016C0.028125 10.6078 0.0234375 10.6875 0.0234375 12.0469V13.4766L0.154688 13.7437C0.295313 14.0344 0.548438 14.2875 0.84375 14.4375C0.960938 14.4984 1.39219 14.5969 1.98281 14.6953C2.50313 14.7844 2.93438 14.8594 2.93438 14.8594C2.93906 14.8594 2.99063 14.9906 3.04688 15.15C3.10781 15.3141 3.25781 15.6797 3.38906 15.9703L3.61875 16.4953L3.075 17.2594C2.45625 18.1312 2.37188 18.3234 2.4 18.8109C2.42813 19.3594 2.52188 19.4953 3.53438 20.5172C4.60313 21.5906 4.74844 21.6797 5.36719 21.675C5.83125 21.675 5.91563 21.6328 6.88125 20.9437L7.59844 20.4281L8.07656 20.6391C8.33906 20.7562 8.69063 20.8969 8.85938 20.9578C9.02813 21.0141 9.16875 21.0656 9.17813 21.0703C9.18281 21.075 9.2625 21.5062 9.35156 22.0219C9.45 22.6078 9.54844 23.0391 9.60938 23.1562C9.75938 23.4516 10.0125 23.7047 10.3031 23.8453L10.5703 23.9766H12H13.4297L13.6969 23.8453C14.0016 23.6953 14.2688 23.4234 14.4 23.1281C14.4469 23.0156 14.5594 22.5094 14.6484 22.0031C14.7328 21.4969 14.8125 21.0797 14.8219 21.075C14.8313 21.0656 15.0047 21.0047 15.2109 20.9297C15.4172 20.8547 15.7781 20.7094 16.0125 20.5969L16.4438 20.4L17.1609 20.9156C18.1594 21.6281 18.1688 21.6328 18.6797 21.6328C19.3031 21.6328 19.425 21.5531 20.4891 20.4891C21.4922 19.4906 21.6094 19.3125 21.6469 18.7734C21.675 18.3094 21.5672 18.0703 20.9344 17.1797L20.4047 16.4344L20.5969 16.0078C20.7047 15.7781 20.8547 15.4125 20.9344 15.1969C21.0328 14.9109 21.0938 14.8031 21.1641 14.7891C21.2156 14.775 21.6375 14.7047 22.0969 14.625C23.0438 14.4703 23.325 14.3625 23.6016 14.0531C23.7 13.95 23.8219 13.7672 23.8781 13.6453C23.9719 13.4391 23.9766 13.3594 23.9766 12V10.5703L23.8453 10.3031C23.7047 10.0172 23.4516 9.75937 23.1656 9.61406C23.0578 9.55781 22.6266 9.45937 22.1203 9.375C21.6469 9.29531 21.2156 9.21094 21.1641 9.19219C21.0984 9.16406 21.0188 9.01406 20.9109 8.71406C20.8266 8.47031 20.6813 8.13281 20.5969 7.95937C20.5078 7.78594 20.4375 7.61719 20.4375 7.58437C20.4375 7.55156 20.6672 7.2 20.9484 6.81094C21.2297 6.41719 21.4969 6.01406 21.5438 5.92031C21.6797 5.63906 21.6891 5.1 21.5578 4.75781C21.4641 4.50469 21.3656 4.3875 20.5125 3.53437C19.4578 2.47969 19.3172 2.38125 18.7875 2.35312C18.3188 2.325 18.1078 2.41875 17.2313 3.04688L16.4484 3.6L16.0172 3.39844C15.7781 3.28594 15.4172 3.13594 15.2109 3.06562C15.0047 2.99531 14.8172 2.92031 14.7938 2.90156C14.7703 2.88281 14.6813 2.45625 14.5969 1.95937C14.4188 0.946875 14.3156 0.674999 14.0063 0.398438C13.6078 0.0374985 13.5516 0.0234375 12.0234 0.014061C10.8141 0 10.6359 0.00937462 10.4203 0.0843735ZM13.1109 1.41562C13.1344 1.44844 13.2328 1.95 13.3313 2.53125C13.425 3.12187 13.5422 3.65625 13.5891 3.75C13.6875 3.94687 13.9031 4.06406 14.5547 4.26562C14.8125 4.35 15.3188 4.56094 15.6844 4.73906C16.1109 4.95 16.4016 5.0625 16.5047 5.0625C16.7109 5.0625 16.875 4.96406 17.8313 4.275C18.2625 3.96094 18.6562 3.70312 18.6984 3.70312C18.8016 3.70312 20.2969 5.20781 20.2969 5.31094C20.2969 5.35312 20.0109 5.79375 19.6641 6.28125C19.0172 7.18594 18.9375 7.32656 18.9375 7.52812C18.9375 7.58906 19.0828 7.93594 19.2609 8.30156C19.4391 8.6625 19.6734 9.22969 19.7812 9.55781C19.9688 10.1484 20.0484 10.2797 20.2781 10.3969C20.3344 10.425 20.8406 10.5234 21.4031 10.6172C21.9703 10.7109 22.4766 10.8047 22.5375 10.8281C22.6406 10.875 22.6406 10.875 22.6406 12C22.6406 13.125 22.6406 13.125 22.5375 13.1719C22.4766 13.1953 21.9703 13.2891 21.4125 13.3781C20.8547 13.4719 20.3484 13.5656 20.2828 13.5891C20.1188 13.65 19.9313 13.8937 19.8703 14.1234C19.7484 14.5922 19.5609 15.0656 19.2609 15.6797C19.0781 16.05 18.9375 16.4016 18.9375 16.4812C18.9375 16.6828 19.0312 16.8469 19.7016 17.7797C20.0297 18.2391 20.2969 18.6516 20.2969 18.6937C20.2969 18.7969 18.7969 20.2969 18.6938 20.2969C18.6469 20.2969 18.2672 20.0484 17.85 19.7484C16.8188 19.0078 16.6969 18.9375 16.5094 18.9375C16.4016 18.9375 16.1156 19.05 15.6844 19.2609C15.3188 19.4437 14.7609 19.6734 14.4422 19.7766C13.8422 19.9734 13.725 20.0437 13.6125 20.2547C13.5797 20.325 13.4719 20.8406 13.3828 21.4031C13.2891 21.9703 13.1953 22.4766 13.1719 22.5328C13.125 22.6406 13.125 22.6406 12 22.6406C10.875 22.6406 10.875 22.6406 10.8281 22.5328C10.8047 22.4766 10.7109 21.9703 10.6219 21.4125C10.5281 20.8547 10.4344 20.3484 10.4109 20.2828C10.35 20.1187 10.1063 19.9312 9.87656 19.8703C9.42188 19.7531 8.93906 19.5656 8.35781 19.2844C7.70156 18.9656 7.51406 18.9281 7.26094 19.0547C7.18594 19.0969 6.74063 19.4016 6.27188 19.7344C5.80781 20.0719 5.39062 20.3437 5.34844 20.3437C5.24531 20.3437 3.75 18.8391 3.75 18.7359C3.75 18.6891 4.04531 18.2391 4.40156 17.7375C4.88906 17.0578 5.0625 16.7766 5.08594 16.6359C5.11406 16.4625 5.08594 16.3828 4.78594 15.7687C4.59844 15.3984 4.36406 14.8359 4.26094 14.5172C3.975 13.6453 4.03125 13.6781 2.61563 13.4344C1.9875 13.3219 1.44375 13.2188 1.41563 13.2C1.34063 13.1578 1.33594 10.9406 1.40625 10.8984C1.43438 10.8797 1.93594 10.7859 2.52188 10.6875C3.10781 10.5891 3.64219 10.4859 3.70781 10.4625C3.88125 10.3969 4.06875 10.1531 4.125 9.92344C4.25156 9.44062 4.48125 8.84062 4.72969 8.34375C5.05313 7.69687 5.08125 7.60312 5.00156 7.37344C4.96875 7.275 4.65 6.79219 4.29844 6.29531C3.94688 5.79844 3.65625 5.36719 3.65625 5.33437C3.65625 5.29688 4.0125 4.91719 4.44844 4.48125C5.18438 3.75469 5.25 3.69844 5.34375 3.75C5.4 3.78281 5.81719 4.06875 6.27188 4.39687C7.12031 5.00625 7.36875 5.13281 7.58438 5.07656C7.65469 5.0625 7.97813 4.9125 8.30156 4.74844C8.625 4.58906 9.14531 4.36875 9.45938 4.26562C9.77344 4.1625 10.0734 4.05469 10.1297 4.02187C10.3313 3.89531 10.3969 3.69375 10.5938 2.55937C10.6969 1.94062 10.7953 1.42031 10.8094 1.39687C10.8234 1.37812 11.3344 1.35938 11.9484 1.35938C12.7875 1.35938 13.0781 1.37344 13.1109 1.41562Z" fill="black"/>
<path d="M11.5454 6.84846C9.61417 7.01721 7.90792 8.28752 7.19073 10.0922C6.73136 11.25 6.72667 12.6891 7.17198 13.8516C7.69698 15.2063 8.79386 16.3031 10.1485 16.8281C11.0204 17.161 12.1079 17.25 13.0407 17.0625C15.947 16.4672 17.761 13.5328 16.9923 10.6547C16.4485 8.61096 14.5642 7.00784 12.5392 6.86252C12.3329 6.84846 12.122 6.8344 12.0704 6.82502C12.0189 6.81565 11.7845 6.82971 11.5454 6.84846ZM12.8439 8.27815C14.2595 8.58284 15.3985 9.72659 15.7314 11.1797C15.8298 11.611 15.8298 12.3891 15.7267 12.8438C15.6189 13.3219 15.2532 14.0625 14.9345 14.4422C13.772 15.8297 11.7564 16.2141 10.1767 15.3469C8.11886 14.2172 7.55636 11.536 8.98604 9.66565C9.34229 9.20159 9.77823 8.85002 10.336 8.57815C11.1564 8.17971 11.9532 8.08596 12.8439 8.27815Z" fill="black"/>
</g>
<defs>
<clipPath id="clip0_353_16562">
<rect width="24" height="24" fill="white"/>
</clipPath>
</defs>
</svg>
