<svg width="24" height="24" viewBox="0 0 24 24" fill="none" xmlns="http://www.w3.org/2000/svg">
<g clip-path="url(#clip0_353_16558)">
<path d="M11.3188 0.049077C10.1938 0.236577 9.36878 0.620953 8.66097 1.28658C7.49378 2.38814 7.01097 3.79908 7.01566 6.12408C7.02035 7.86783 7.29691 9.17564 7.9016 10.3381C8.69378 11.871 9.93128 12.7053 11.6516 12.8788C12.5938 12.9772 13.5313 12.8272 14.3328 12.4522C15.2657 12.0163 16.0203 11.2475 16.5407 10.2069C16.7469 9.80377 17.0375 8.91783 17.15 8.35064C17.3985 7.10377 17.4125 5.19127 17.1782 4.02408C16.8125 2.20533 15.6922 0.86939 14.061 0.302202C13.311 0.0397024 12.0641 -0.0727978 11.3188 0.049077ZM13.2875 1.47877C14.8297 1.88658 15.7063 2.98345 15.9407 4.78814C16.0297 5.48658 16.0203 7.01939 15.9172 7.64752C15.5703 9.80845 14.6938 11.0413 13.2125 11.4491C12.9875 11.5147 12.7297 11.5335 12.186 11.5381C11.3703 11.5381 10.9719 11.4538 10.4282 11.1725C10.0297 10.9663 9.40628 10.3288 9.14378 9.85533C8.5766 8.8522 8.30003 7.39439 8.35628 5.72564C8.41253 4.06158 8.73128 3.1147 9.48597 2.35064C9.97347 1.85845 10.5594 1.55845 11.3188 1.40845C11.8016 1.31939 12.8094 1.3522 13.2875 1.47877Z" fill="black"/>
<path d="M8.48294 12.9585C8.39388 13.01 8.11731 13.1694 7.87356 13.3194C6.90794 13.91 5.69856 14.4444 4.54544 14.796C3.84231 15.0069 3.45794 15.2225 3.06419 15.621C2.31419 16.3756 2.00481 17.3975 2.00013 19.1319C1.99544 20.51 2.122 21.2506 2.41263 21.5225C2.62825 21.7288 3.64075 22.235 4.54544 22.5913C8.63294 24.2085 13.7704 24.4241 18.1486 23.1678C19.7376 22.7131 21.6876 21.8553 22.0298 21.4663C22.3673 21.0866 22.4986 19.1506 22.2876 17.7725C22.1048 16.6006 21.6314 15.7569 20.8767 15.2647C20.5439 15.0444 20.2533 14.9272 19.4517 14.6788C18.4861 14.3741 17.4361 13.8913 16.4517 13.296C16.0158 13.0288 15.7579 12.9022 15.6314 12.8881C15.1345 12.8366 14.7595 13.371 14.9751 13.8303C15.1861 14.2756 17.4267 15.4428 19.0298 15.9444C19.4048 16.0616 19.822 16.2116 19.9533 16.2772C20.4267 16.5116 20.7736 17.0366 20.9376 17.7538C21.0033 18.0303 21.0173 18.3303 21.0173 19.2256C21.0126 19.8444 20.9939 20.4116 20.9704 20.4866C20.9376 20.5897 20.8486 20.66 20.6236 20.7772C18.7908 21.7241 16.2923 22.385 13.8079 22.5819C12.7814 22.6616 10.5454 22.61 9.60794 22.4835C7.41419 22.1928 5.43606 21.621 3.85169 20.8241L3.42513 20.6085L3.38763 20.3881C3.36888 20.2616 3.35013 19.6991 3.35481 19.1319C3.3595 17.9835 3.41106 17.6272 3.65013 17.1116C3.91263 16.5491 4.26419 16.2725 4.96731 16.0663C5.74075 15.8413 6.5845 15.5038 7.47513 15.0538C8.647 14.4678 9.23763 14.0928 9.37825 13.8444C9.69231 13.2772 9.0595 12.6538 8.48294 12.9585Z" fill="black"/>
</g>
<defs>
<clipPath id="clip0_353_16558">
<rect width="24" height="24" fill="white"/>
</clipPath>
</defs>
</svg>
