<svg width="60" height="51" viewBox="0 0 60 51" fill="none" xmlns="http://www.w3.org/2000/svg">
<path d="M5.625 0.75C2.51953 0.75 0 3.54948 0 7C0 8.96615 0.832031 10.8151 2.25 12L27.75 33.25C29.0859 34.3568 30.9141 34.3568 32.25 33.25L57.75 12C59.168 10.8151 60 8.96615 60 7C60 3.54948 57.4805 0.75 54.375 0.75H5.625ZM0 15.3333V42.4167C0 47.013 3.36328 50.75 7.5 50.75H52.5C56.6367 50.75 60 47.013 60 42.4167V15.3333L34.5 36.5833C31.8281 38.8099 28.1719 38.8099 25.5 36.5833L0 15.3333Z" fill="#727272"/>
</svg>
