<svg width="24" height="24" viewBox="0 0 24 24" fill="none" xmlns="http://www.w3.org/2000/svg">
<g clip-path="url(#clip0_353_16550)">
<path d="M11.6953 0.604298C11.6438 0.627735 9.00941 2.95742 5.84535 5.78867C-0.374964 11.3527 -0.0562141 11.0434 0.0187859 11.4512C0.103161 11.9152 0.745348 12.1355 1.09222 11.8215C1.14847 11.7746 1.6266 11.348 2.15629 10.8746L3.11722 10.0168L3.14066 16.0824L3.1641 22.148L3.30941 22.4527C3.48754 22.823 3.7641 23.109 4.11566 23.2824L4.38285 23.4137H6.58597H8.7891L9.04691 23.2918C9.3891 23.1277 9.63754 22.8746 9.81566 22.4996L9.96097 22.1949L9.97504 18.984C9.98441 16.7949 10.0032 15.759 10.0407 15.7168C10.0782 15.6699 10.4953 15.6559 12.0047 15.6559H13.9172L13.9875 15.759C14.0532 15.8527 14.0625 16.2371 14.0625 19.0168C14.0625 22.1199 14.0625 22.1715 14.161 22.4387C14.3016 22.8137 14.6907 23.198 15.0657 23.3387C15.3328 23.4371 15.3844 23.4418 17.4563 23.4277L19.5703 23.4137L19.8 23.3012C20.2032 23.0996 20.5922 22.6027 20.7703 22.0543C20.8219 21.9043 20.8407 20.6902 20.8594 15.9746L20.8828 10.0777L21.9282 11.0105C22.5844 11.6012 23.0344 11.9668 23.1375 11.9996C23.611 12.159 24.075 11.7371 23.9813 11.2355C23.9625 11.1465 23.8828 11.0059 23.7985 10.9168C23.4141 10.523 12.3563 0.67461 12.2438 0.623049C12.0985 0.557423 11.8313 0.548048 11.6953 0.604298ZM15.9328 5.64805L19.5 8.83555V15.248C19.5 21.5715 19.5 21.6605 19.4063 21.8434C19.3547 21.9465 19.2703 22.0496 19.2235 22.0777C19.1625 22.1059 18.4875 22.1246 17.3578 22.1246C15.8297 22.1246 15.5672 22.1152 15.4782 22.0496L15.375 21.9793V18.8762C15.375 16.2793 15.3657 15.7262 15.3047 15.5012C15.1782 15.0184 14.8875 14.6715 14.4141 14.4512L14.1328 14.3199H12H9.86722L9.5766 14.4559C9.23441 14.6105 8.9016 14.9387 8.7516 15.2715C8.64847 15.4918 8.64847 15.5152 8.63441 18.7262C8.62504 21.9465 8.62504 21.9605 8.5266 22.0402C8.43754 22.1199 8.26879 22.1246 6.58129 22.1246H4.7391L4.60785 22.0121L4.4766 21.8996L4.46254 15.3559L4.45316 8.8168L8.20785 5.46523L11.9625 2.10899L12.1641 2.28242C12.2766 2.38086 13.9735 3.89492 15.9328 5.64805Z" fill="black"/>
</g>
<defs>
<clipPath id="clip0_353_16550">
<rect width="24" height="24" fill="white"/>
</clipPath>
</defs>
</svg>
