<svg width="24" height="24" viewBox="0 0 24 24" fill="none" xmlns="http://www.w3.org/2000/svg">
<path d="M5.7188 0.0325375C5.39536 0.0887871 4.87974 0.25285 4.58442 0.398163C3.5438 0.913788 2.78911 1.88879 2.55474 3.02785C2.44692 3.54348 2.44692 20.456 2.55474 20.9716C2.70005 21.6747 3.00474 22.2607 3.5063 22.7904C4.00786 23.32 4.53286 23.6435 5.25942 23.8685L5.60161 23.9763L13.2891 23.9904C18.7594 23.9997 21.0141 23.9857 21.0985 23.9482C21.1688 23.92 21.286 23.8357 21.3563 23.7607L21.4922 23.62L21.5063 15.1685L21.5157 6.71691L21.4079 6.55754C21.3516 6.46848 21.2297 6.36066 21.1407 6.31848C20.986 6.23879 20.5219 6.2341 13.4766 6.2341C5.1563 6.2341 5.65786 6.25285 5.06724 5.92004C4.2938 5.48879 3.79692 4.65441 3.79692 3.78254C3.79692 2.73254 4.43442 1.8466 5.48442 1.4341L5.74224 1.33566L13.4297 1.31223C20.7469 1.28879 21.1219 1.2841 21.2438 1.20441C21.5297 1.00754 21.6 0.496601 21.3704 0.248163C21.1172 -0.0190258 21.6422 -0.000274658 13.4204 0.0044136C9.24849 0.00909996 5.78442 0.0231628 5.7188 0.0325375ZM4.61724 7.1716C5.40474 7.55129 4.6688 7.51847 12.8813 7.53254L20.2032 7.5466V15.1169V22.6872H13.1344C8.30161 22.6872 5.97661 22.6732 5.78442 22.6357C5.13755 22.5185 4.4438 22.0122 4.10161 21.4029C3.77817 20.8216 3.79692 21.3044 3.79692 13.6029V6.65129L4.02192 6.82004C4.1438 6.91379 4.41099 7.07316 4.61724 7.1716Z" fill="black"/>
<path d="M11.6953 10.2141C11.6203 10.2609 11.5172 10.3406 11.475 10.3875C11.3484 10.5281 8.34375 18.975 8.34375 19.1859C8.34375 19.5703 8.61562 19.8281 9.01406 19.8281C9.20156 19.8281 9.2625 19.8047 9.40312 19.6734C9.57187 19.5187 9.58125 19.4953 10.1719 17.8453L10.4156 17.1562H11.9953H13.5703L13.9641 18.2672C14.3953 19.4906 14.475 19.6547 14.6719 19.7578C14.8547 19.8516 15.1641 19.8469 15.3328 19.7484C15.5156 19.6406 15.675 19.3078 15.6375 19.1109C15.5812 18.8156 12.5672 10.4437 12.4828 10.35C12.2906 10.1297 11.9297 10.0687 11.6953 10.2141ZM12.5578 14.3016C12.8484 15.1266 13.0781 15.8109 13.0687 15.825C13.0547 15.8344 12.5625 15.8391 11.9719 15.8344L10.8937 15.8203L11.4375 14.3109C11.7328 13.4766 11.9859 12.7969 12 12.7969C12.0141 12.7969 12.2625 13.4719 12.5578 14.3016Z" fill="black"/>
<path d="M6.15481 3.26237C5.80324 3.43581 5.70012 3.97018 5.95793 4.25143C6.20168 4.51393 5.85949 4.49987 12.6423 4.49987C18.5204 4.49987 18.9236 4.49518 19.0782 4.41549C19.547 4.18112 19.5751 3.51549 19.1204 3.27174C18.9704 3.19206 18.6751 3.18737 12.6329 3.18737C6.92824 3.18737 6.29074 3.19674 6.15481 3.26237Z" fill="black"/>
</svg>
