<svg width="24" height="25" viewBox="0 0 24 25" fill="none" xmlns="http://www.w3.org/2000/svg">
<g clip-path="url(#clip0_353_16579)">
<path d="M11.1094 1.01642C9.44999 1.1383 7.60781 1.68205 6.21093 2.46955C2.65781 4.46642 0.412493 7.93048 0.0468682 11.9758C-0.220319 14.9149 0.689056 17.9945 2.51718 20.3383L2.75156 20.6383L2.56406 20.9711C2.12343 21.7586 1.61249 22.307 0.937493 22.7055C0.501556 22.9633 0.314056 23.1883 0.239056 23.5352C0.149993 23.9477 0.285931 24.3461 0.609368 24.6227C0.904681 24.8711 1.11562 24.9133 2.13281 24.9133C3.11249 24.9133 3.46406 24.8617 4.26562 24.5992C4.86093 24.4024 5.27343 24.2149 5.84999 23.8633L6.33749 23.568L6.83437 23.8024C8.39999 24.543 9.84374 24.8992 11.5781 24.9695C14.2875 25.0774 17.0109 24.2102 19.2609 22.532C19.8422 22.0961 21.1172 20.8211 21.5578 20.2352C22.7906 18.5805 23.55 16.7805 23.8687 14.7414C24.0141 13.7992 24.0141 12.168 23.8687 11.2258C23.4562 8.57736 22.2516 6.24298 20.3578 4.40549C19.3828 3.45861 18.5297 2.84923 17.3437 2.25392C15.4078 1.2883 13.2516 0.857048 11.1094 1.01642ZM13.2656 2.44142C16.4953 2.81174 19.4437 4.72892 21.1125 7.54611C21.8906 8.85392 22.3687 10.2836 22.5516 11.8258C22.6406 12.5945 22.5844 14.1414 22.4391 14.9055C21.9328 17.5399 20.6156 19.7102 18.5109 21.3649C16.2844 23.1227 13.3172 23.9102 10.5 23.5024C9.34687 23.3336 8.32031 23.0102 7.19062 22.4524C6.20624 21.9649 6.22031 21.9649 5.53593 22.4289C4.91718 22.8508 4.34062 23.1461 3.80624 23.3149C3.37968 23.4461 2.67187 23.5774 2.35781 23.5774H2.16093L2.66718 23.0711C2.98593 22.757 3.28124 22.4055 3.46406 22.1242C3.76874 21.6602 4.15781 20.8961 4.19999 20.6758C4.25156 20.4274 4.13437 20.1742 3.74999 19.6914C2.35781 17.943 1.57499 15.9555 1.40156 13.6961C1.23749 11.5914 1.78124 9.34611 2.91562 7.45705C3.53906 6.4258 4.64999 5.20705 5.63906 4.46642C7.81874 2.84455 10.5141 2.12736 13.2656 2.44142Z" fill="black"/>
<path d="M7.28448 12.2333C6.66573 12.5427 6.67042 13.4333 7.28917 13.7333C7.6501 13.9068 8.07198 13.8036 8.3251 13.4708C8.44229 13.3161 8.46104 13.2552 8.46104 12.9833C8.46104 12.7115 8.44229 12.6505 8.3251 12.4958C8.07198 12.163 7.64542 12.0552 7.28448 12.2333Z" fill="black"/>
<path d="M11.625 12.2425C11.0062 12.5566 11.0062 13.4097 11.625 13.7191C11.8828 13.855 12.0984 13.855 12.3656 13.7285C12.9796 13.4285 12.9796 12.5379 12.3656 12.2379C12.0984 12.1113 11.8828 12.1113 11.625 12.2425Z" fill="black"/>
<path d="M16.0874 12.1771C15.914 12.2334 15.6515 12.4678 15.5812 12.6365C15.4265 13.0021 15.539 13.4006 15.8577 13.6584C16.0171 13.785 16.078 13.8037 16.3312 13.8037C16.5796 13.8037 16.6499 13.785 16.7999 13.6678C17.0577 13.4709 17.1562 13.2881 17.1562 12.9834C17.1562 12.6834 17.0577 12.4959 16.814 12.3084C16.6405 12.1771 16.2937 12.1115 16.0874 12.1771Z" fill="black"/>
</g>
<defs>
<clipPath id="clip0_353_16579">
<rect width="24" height="24" fill="white" transform="translate(0 0.983398)"/>
</clipPath>
</defs>
</svg>
